<svg width="30" height="30" viewBox="0 0 30 30" fill="none" xmlns="http://www.w3.org/2000/svg">
<g clip-path="url(#clip0_2418_818)">
<path d="M22.9102 7.43722V2.66119C22.9102 2.33869 22.7335 2.04215 22.45 1.88846C17.808 -0.626974 12.2035 -0.631134 7.55479 1.88588C7.29393 2.01631 7.08984 2.31789 7.08984 2.66119V7.43763C2.94094 8.58191 0 12.3906 0 16.7573C0 21.0557 2.84215 24.8422 6.97266 26.0436V29.1205C6.97266 29.9079 7.92445 30.291 8.47313 29.7418L11.7888 26.4252H20.332C25.6629 26.4252 30 22.0882 30 16.7573C30 12.2528 26.9456 8.54928 22.9102 7.43722ZM21.1523 3.19539V8.87881C21.1523 12.4378 18.5163 15.4603 15.0026 15.9542C11.4862 15.4626 8.84766 12.439 8.84766 8.8781C8.84766 8.20761 8.84766 4.02707 8.84766 3.19533C12.7363 1.26965 17.2638 1.26982 21.1523 3.19539ZM20.332 24.6674H11.4246C11.1915 24.6674 10.9679 24.7601 10.803 24.9249L8.73047 26.9982V25.3582C8.73047 24.9426 8.43926 24.5837 8.03256 24.4981C4.45564 23.7455 1.75781 20.57 1.75781 16.7573C1.75781 13.3473 3.94881 10.3533 7.09881 9.27343C7.28918 13.5804 10.5741 17.1731 14.8889 17.7122C14.9209 17.7144 14.9923 17.7278 15.112 17.7129C19.4262 17.1734 22.7108 13.5809 22.9012 9.27437C25.9653 10.3242 28.2422 13.2391 28.2422 16.7573C28.2422 21.119 24.6937 24.6674 20.332 24.6674Z" fill="#74B629"/>
<path d="M12.1875 10.0777C11.8962 9.68927 11.3453 9.6107 10.957 9.90191C10.5687 10.1932 10.49 10.7441 10.7813 11.1324C11.7451 12.4175 13.5956 12.784 15 11.8079C16.4036 12.7834 18.2542 12.4184 19.2188 11.1324C19.51 10.7441 19.4313 10.1932 19.043 9.90191C18.6547 9.6107 18.1039 9.68945 17.8125 10.0777C17.2864 10.7792 16.2299 10.7801 15.7031 10.0777C15.3516 9.60965 14.6476 9.60929 14.2969 10.0777C13.7708 10.7792 12.7143 10.7801 12.1875 10.0777Z" fill="#74B629"/>
<path d="M11.4844 7.08941H13.2422C13.7276 7.08941 14.1211 6.6959 14.1211 6.21051C14.1211 5.72511 13.7276 5.3316 13.2422 5.3316H11.4844C10.999 5.3316 10.6055 5.72511 10.6055 6.21051C10.6055 6.6959 10.999 7.08941 11.4844 7.08941Z" fill="#74B629"/>
<path d="M16.7578 7.08941H18.5156C19.001 7.08941 19.3945 6.6959 19.3945 6.21051C19.3945 5.72511 19.001 5.3316 18.5156 5.3316H16.7578C16.2724 5.3316 15.8789 5.72511 15.8789 6.21051C15.8789 6.6959 16.2724 7.08941 16.7578 7.08941Z" fill="#74B629"/>
<path d="M16.7578 19.394H7.96875C7.48336 19.394 7.08984 19.7876 7.08984 20.2729C7.08984 20.7583 7.48336 21.1519 7.96875 21.1519H16.7578C17.2432 21.1519 17.6367 20.7583 17.6367 20.2729C17.6367 19.7875 17.2432 19.394 16.7578 19.394Z" fill="#74B629"/>
<path d="M22.0312 19.394H20.2734C19.788 19.394 19.3945 19.7876 19.3945 20.2729C19.3945 20.7583 19.788 21.1519 20.2734 21.1519H22.0312C22.5166 21.1519 22.9102 20.7583 22.9102 20.2729C22.9102 19.7875 22.5166 19.394 22.0312 19.394Z" fill="#74B629"/>
</g>
<defs>
<clipPath id="clip0_2418_818">
<rect width="30" height="30" fill="white"/>
</clipPath>
</defs>
</svg>
