<svg width="10" height="8" viewBox="0 0 10 8" fill="none" xmlns="http://www.w3.org/2000/svg">
<path fill-rule="evenodd" clip-rule="evenodd" d="M9.87466 3.68679C9.95492 3.7699 10 3.88255 10 4C10 4.11745 9.95492 4.2301 9.87466 4.31321L6.44596 7.85893C6.40672 7.90248 6.3594 7.93741 6.30683 7.96163C6.25426 7.98586 6.19751 7.99888 6.13996 7.99993C6.08241 8.00098 6.02525 7.99003 5.97188 7.96774C5.91852 7.94545 5.87004 7.91227 5.82934 7.87018C5.78864 7.8281 5.75656 7.77796 5.735 7.72278C5.71345 7.66759 5.70286 7.60848 5.70388 7.54897C5.70489 7.48945 5.71749 7.43076 5.74091 7.3764C5.76434 7.32203 5.79811 7.2731 5.84022 7.23252L8.53746 4.44322L0.428588 4.44322C0.314919 4.44322 0.205906 4.39652 0.12553 4.3134C0.0451546 4.23028 0 4.11755 0 4C0 3.88245 0.0451546 3.76972 0.12553 3.6866C0.205906 3.60348 0.314919 3.55678 0.428588 3.55678L8.53746 3.55678L5.84022 0.767478C5.79811 0.726902 5.76434 0.67797 5.74091 0.623603C5.71749 0.569235 5.70489 0.510546 5.70388 0.451035C5.70286 0.391524 5.71345 0.332411 5.735 0.277223C5.75656 0.222035 5.78864 0.171902 5.82934 0.129815C5.87004 0.0877278 5.91852 0.0545489 5.97188 0.0322575C6.02525 0.00996606 6.08241 -0.000981021 6.13996 6.89777e-05C6.19751 0.00111898 6.25426 0.0141445 6.30683 0.0383689C6.3594 0.0625933 6.40672 0.09752 6.44596 0.141066L9.87466 3.68679Z" fill="#74B629"/>
</svg>
