<svg width="30" height="30" viewBox="0 0 30 30" fill="none" xmlns="http://www.w3.org/2000/svg">
<g clip-path="url(#clip0_2418_2847)">
<mask id="path-1-outside-1_2418_2847" maskUnits="userSpaceOnUse" x="-1" y="0" width="32" height="30" fill="black">
<rect fill="white" x="-1" width="32" height="30"/>
<path d="M17.412 18.3398C17.236 18.0685 16.8732 17.991 16.6016 18.1668C15.4529 18.91 14.1192 19.3028 12.7448 19.3028C8.82754 19.3028 5.64058 16.1197 5.64058 12.2072C5.64058 8.29475 8.82754 5.11171 12.7448 5.11171C16.4568 5.11171 19.5125 7.96995 19.8226 11.5985L18.8732 10.6798C18.6408 10.455 18.2698 10.4608 18.0447 10.693C17.8195 10.9252 17.8253 11.2957 18.0578 11.5206L20.0273 13.4263C20.2713 13.6624 20.6778 13.6373 20.891 13.3736L22.4976 11.386C22.7009 11.1344 22.6616 10.766 22.4098 10.563C22.158 10.3598 21.7891 10.3992 21.5858 10.6506L20.9813 11.3984C20.573 7.21874 17.0351 3.94123 12.7448 3.94123C8.18134 3.94123 4.46867 7.64935 4.46867 12.2072C4.46867 16.7651 8.18134 20.4733 12.7448 20.4733C14.3459 20.4733 15.8998 20.0154 17.2387 19.1492C17.5103 18.9735 17.5879 18.6111 17.412 18.3398Z"/>
<path d="M8.78464 14.3133C8.46553 14.6858 8.73999 15.2792 9.22979 15.2792H11.8599C12.1835 15.2792 12.4459 15.0171 12.4459 14.6939C12.4459 14.3708 12.1835 14.1087 11.8599 14.1087H10.5026L11.94 12.4314C11.9467 12.4235 11.9533 12.4155 11.9596 12.4072C12.2021 12.0918 12.3356 11.699 12.3356 11.3014C12.3356 10.3 11.5199 9.48519 10.5172 9.48519H10.4709C9.46828 9.48519 8.65251 10.3 8.65251 11.3014V11.3155C8.65251 11.6387 8.91484 11.9008 9.23847 11.9008C9.56209 11.9008 9.82442 11.6387 9.82442 11.3155V11.3014C9.82442 10.9453 10.1144 10.6557 10.4709 10.6557C10.6977 10.6557 10.9066 10.7366 11.0424 10.9255C11.2038 11.1498 11.2019 11.4612 11.0378 11.6841L8.78464 14.3133Z"/>
<path d="M16.0726 15.1217C16.3963 15.1217 16.6586 14.8596 16.6586 14.5364V9.91288C16.6586 9.39407 16.0005 9.13463 15.6456 9.51211L13.3139 11.9906C12.9568 12.3702 12.8744 12.9489 13.113 13.412C13.325 13.8234 13.7593 14.0896 14.2229 14.0896H15.4867V14.5364C15.4867 14.8597 15.749 15.1217 16.0726 15.1217ZM14.2228 12.9191C14.1813 12.9191 14.1474 12.8854 14.1474 12.8438C14.1474 12.8246 14.1547 12.8062 14.1679 12.7922L15.4866 11.3904V12.9191H14.2228Z"/>
<path d="M19.3916 16.6526C19.2953 16.422 19.0574 16.2744 18.8074 16.293C18.5632 16.3112 18.3519 16.4847 18.2865 16.7202C18.1456 17.2272 18.7233 17.6494 19.1653 17.3696C19.4021 17.2197 19.4992 16.911 19.3916 16.6526Z"/>
<path d="M29.8047 17.1397C29.5947 16.3098 29.2552 15.6927 28.9965 15.3095L29.091 15.2151C29.3166 14.9897 29.3166 14.6128 29.091 14.3874L27.199 12.4977C26.8313 12.1305 26.2782 11.995 25.7815 12.1504V5.73896C25.7815 3.12593 23.653 1 21.0367 1H4.74477C2.12848 1 0 3.12593 0 5.73896V18.5126C0 20.9279 1.81793 22.927 4.15882 23.2162V26.8282C4.15882 27.3017 4.72116 27.5823 5.10016 27.2934L10.4038 23.2521H14.4409L13.4607 24.2311C13.1949 24.4966 13.0485 24.8496 13.0485 25.225C13.0485 25.6005 13.1949 25.9534 13.4607 26.219L15.3527 28.1086C15.5784 28.334 15.9556 28.3341 16.1813 28.1086L16.3449 27.9452C16.7215 28.2126 17.3235 28.5607 18.1341 28.7819C18.6926 28.9343 19.2469 29 19.7877 29C21.513 29 23.0996 28.3319 24.2354 27.6812C24.5713 27.4888 24.8865 27.2465 25.1724 26.961L27.936 24.2009C28.2217 23.9156 28.4643 23.6007 28.6571 23.265C29.5113 21.7776 30.4038 19.5076 29.8047 17.1397ZM26.2038 13.2566C26.2641 13.2566 26.3244 13.2795 26.3703 13.3254L27.8479 14.8013L24.5242 18.1209L23.0466 16.645C22.9547 16.5533 22.9547 16.4041 23.0466 16.3124L26.0373 13.3254C26.0832 13.2795 26.1435 13.2566 26.2038 13.2566ZM10.2058 22.0816C10.0773 22.0816 9.95245 22.1237 9.85038 22.2016L5.33073 25.6456V22.6669C5.33073 22.3437 5.0684 22.0817 4.74477 22.0817C2.77467 22.0816 1.17191 20.4806 1.17191 18.5126V5.73896C1.17191 3.77134 2.77467 2.17048 4.74477 2.17048H21.0368C23.0069 2.17048 24.6097 3.77134 24.6097 5.73896V13.0956L22.2173 15.485C21.6759 16.0269 21.6755 16.9309 22.2177 17.4725L24.8945 20.146C25.1964 20.4475 25.1964 20.9383 24.8945 21.2398L22.2136 23.9174C21.9161 24.2145 21.4163 24.2149 21.1184 23.9174L18.4418 21.244C17.8996 20.7049 16.9938 20.7031 16.4513 21.2438L15.6126 22.0816H10.2058V22.0816ZM14.2893 25.3913C14.1975 25.2997 14.1975 25.1504 14.2893 25.0587L17.2801 22.0717C17.3698 21.9821 17.5236 21.9823 17.6131 22.0717L19.0908 23.5476L15.7671 26.8672L14.2893 25.3913ZM27.6405 22.6826C27.4992 22.9286 27.3199 23.1609 27.1073 23.3732L24.3437 26.1333C24.1311 26.3457 23.8984 26.5249 23.6523 26.6659C21.7893 27.7332 20.0578 28.071 18.5061 27.6697C17.9331 27.5216 17.4899 27.294 17.1888 27.1024L19.9194 24.3753L20.2897 24.7451C21.0432 25.4905 22.2895 25.497 23.0422 24.7453L25.7233 22.0675C26.0908 21.7004 26.2933 21.2122 26.2933 20.693C26.2933 20.1738 26.0909 19.6856 25.7233 19.3185L25.3529 18.9486L28.1476 16.1574C28.3316 16.4664 28.5465 16.9151 28.6842 17.4903C29.0625 19.0711 28.7114 20.818 27.6405 22.6826Z"/>
</mask>
<path d="M17.412 18.3398C17.236 18.0685 16.8732 17.991 16.6016 18.1668C15.4529 18.91 14.1192 19.3028 12.7448 19.3028C8.82754 19.3028 5.64058 16.1197 5.64058 12.2072C5.64058 8.29475 8.82754 5.11171 12.7448 5.11171C16.4568 5.11171 19.5125 7.96995 19.8226 11.5985L18.8732 10.6798C18.6408 10.455 18.2698 10.4608 18.0447 10.693C17.8195 10.9252 17.8253 11.2957 18.0578 11.5206L20.0273 13.4263C20.2713 13.6624 20.6778 13.6373 20.891 13.3736L22.4976 11.386C22.7009 11.1344 22.6616 10.766 22.4098 10.563C22.158 10.3598 21.7891 10.3992 21.5858 10.6506L20.9813 11.3984C20.573 7.21874 17.0351 3.94123 12.7448 3.94123C8.18134 3.94123 4.46867 7.64935 4.46867 12.2072C4.46867 16.7651 8.18134 20.4733 12.7448 20.4733C14.3459 20.4733 15.8998 20.0154 17.2387 19.1492C17.5103 18.9735 17.5879 18.6111 17.412 18.3398Z" fill="#74B629"/>
<path d="M8.78464 14.3133C8.46553 14.6858 8.73999 15.2792 9.22979 15.2792H11.8599C12.1835 15.2792 12.4459 15.0171 12.4459 14.6939C12.4459 14.3708 12.1835 14.1087 11.8599 14.1087H10.5026L11.94 12.4314C11.9467 12.4235 11.9533 12.4155 11.9596 12.4072C12.2021 12.0918 12.3356 11.699 12.3356 11.3014C12.3356 10.3 11.5199 9.48519 10.5172 9.48519H10.4709C9.46828 9.48519 8.65251 10.3 8.65251 11.3014V11.3155C8.65251 11.6387 8.91484 11.9008 9.23847 11.9008C9.56209 11.9008 9.82442 11.6387 9.82442 11.3155V11.3014C9.82442 10.9453 10.1144 10.6557 10.4709 10.6557C10.6977 10.6557 10.9066 10.7366 11.0424 10.9255C11.2038 11.1498 11.2019 11.4612 11.0378 11.6841L8.78464 14.3133Z" fill="#74B629"/>
<path d="M16.0726 15.1217C16.3963 15.1217 16.6586 14.8596 16.6586 14.5364V9.91288C16.6586 9.39407 16.0005 9.13463 15.6456 9.51211L13.3139 11.9906C12.9568 12.3702 12.8744 12.9489 13.113 13.412C13.325 13.8234 13.7593 14.0896 14.2229 14.0896H15.4867V14.5364C15.4867 14.8597 15.749 15.1217 16.0726 15.1217ZM14.2228 12.9191C14.1813 12.9191 14.1474 12.8854 14.1474 12.8438C14.1474 12.8246 14.1547 12.8062 14.1679 12.7922L15.4866 11.3904V12.9191H14.2228Z" fill="#74B629"/>
<path d="M19.3916 16.6526C19.2953 16.422 19.0574 16.2744 18.8074 16.293C18.5632 16.3112 18.3519 16.4847 18.2865 16.7202C18.1456 17.2272 18.7233 17.6494 19.1653 17.3696C19.4021 17.2197 19.4992 16.911 19.3916 16.6526Z" fill="#74B629"/>
<path d="M29.8047 17.1397C29.5947 16.3098 29.2552 15.6927 28.9965 15.3095L29.091 15.2151C29.3166 14.9897 29.3166 14.6128 29.091 14.3874L27.199 12.4977C26.8313 12.1305 26.2782 11.995 25.7815 12.1504V5.73896C25.7815 3.12593 23.653 1 21.0367 1H4.74477C2.12848 1 0 3.12593 0 5.73896V18.5126C0 20.9279 1.81793 22.927 4.15882 23.2162V26.8282C4.15882 27.3017 4.72116 27.5823 5.10016 27.2934L10.4038 23.2521H14.4409L13.4607 24.2311C13.1949 24.4966 13.0485 24.8496 13.0485 25.225C13.0485 25.6005 13.1949 25.9534 13.4607 26.219L15.3527 28.1086C15.5784 28.334 15.9556 28.3341 16.1813 28.1086L16.3449 27.9452C16.7215 28.2126 17.3235 28.5607 18.1341 28.7819C18.6926 28.9343 19.2469 29 19.7877 29C21.513 29 23.0996 28.3319 24.2354 27.6812C24.5713 27.4888 24.8865 27.2465 25.1724 26.961L27.936 24.2009C28.2217 23.9156 28.4643 23.6007 28.6571 23.265C29.5113 21.7776 30.4038 19.5076 29.8047 17.1397ZM26.2038 13.2566C26.2641 13.2566 26.3244 13.2795 26.3703 13.3254L27.8479 14.8013L24.5242 18.1209L23.0466 16.645C22.9547 16.5533 22.9547 16.4041 23.0466 16.3124L26.0373 13.3254C26.0832 13.2795 26.1435 13.2566 26.2038 13.2566ZM10.2058 22.0816C10.0773 22.0816 9.95245 22.1237 9.85038 22.2016L5.33073 25.6456V22.6669C5.33073 22.3437 5.0684 22.0817 4.74477 22.0817C2.77467 22.0816 1.17191 20.4806 1.17191 18.5126V5.73896C1.17191 3.77134 2.77467 2.17048 4.74477 2.17048H21.0368C23.0069 2.17048 24.6097 3.77134 24.6097 5.73896V13.0956L22.2173 15.485C21.6759 16.0269 21.6755 16.9309 22.2177 17.4725L24.8945 20.146C25.1964 20.4475 25.1964 20.9383 24.8945 21.2398L22.2136 23.9174C21.9161 24.2145 21.4163 24.2149 21.1184 23.9174L18.4418 21.244C17.8996 20.7049 16.9938 20.7031 16.4513 21.2438L15.6126 22.0816H10.2058V22.0816ZM14.2893 25.3913C14.1975 25.2997 14.1975 25.1504 14.2893 25.0587L17.2801 22.0717C17.3698 21.9821 17.5236 21.9823 17.6131 22.0717L19.0908 23.5476L15.7671 26.8672L14.2893 25.3913ZM27.6405 22.6826C27.4992 22.9286 27.3199 23.1609 27.1073 23.3732L24.3437 26.1333C24.1311 26.3457 23.8984 26.5249 23.6523 26.6659C21.7893 27.7332 20.0578 28.071 18.5061 27.6697C17.9331 27.5216 17.4899 27.294 17.1888 27.1024L19.9194 24.3753L20.2897 24.7451C21.0432 25.4905 22.2895 25.497 23.0422 24.7453L25.7233 22.0675C26.0908 21.7004 26.2933 21.2122 26.2933 20.693C26.2933 20.1738 26.0909 19.6856 25.7233 19.3185L25.3529 18.9486L28.1476 16.1574C28.3316 16.4664 28.5465 16.9151 28.6842 17.4903C29.0625 19.0711 28.7114 20.818 27.6405 22.6826Z" fill="#74B629"/>
<path d="M17.412 18.3398C17.236 18.0685 16.8732 17.991 16.6016 18.1668C15.4529 18.91 14.1192 19.3028 12.7448 19.3028C8.82754 19.3028 5.64058 16.1197 5.64058 12.2072C5.64058 8.29475 8.82754 5.11171 12.7448 5.11171C16.4568 5.11171 19.5125 7.96995 19.8226 11.5985L18.8732 10.6798C18.6408 10.455 18.2698 10.4608 18.0447 10.693C17.8195 10.9252 17.8253 11.2957 18.0578 11.5206L20.0273 13.4263C20.2713 13.6624 20.6778 13.6373 20.891 13.3736L22.4976 11.386C22.7009 11.1344 22.6616 10.766 22.4098 10.563C22.158 10.3598 21.7891 10.3992 21.5858 10.6506L20.9813 11.3984C20.573 7.21874 17.0351 3.94123 12.7448 3.94123C8.18134 3.94123 4.46867 7.64935 4.46867 12.2072C4.46867 16.7651 8.18134 20.4733 12.7448 20.4733C14.3459 20.4733 15.8998 20.0154 17.2387 19.1492C17.5103 18.9735 17.5879 18.6111 17.412 18.3398Z" stroke="#74B629" stroke-width="0.4" mask="url(#path-1-outside-1_2418_2847)"/>
<path d="M8.78464 14.3133C8.46553 14.6858 8.73999 15.2792 9.22979 15.2792H11.8599C12.1835 15.2792 12.4459 15.0171 12.4459 14.6939C12.4459 14.3708 12.1835 14.1087 11.8599 14.1087H10.5026L11.94 12.4314C11.9467 12.4235 11.9533 12.4155 11.9596 12.4072C12.2021 12.0918 12.3356 11.699 12.3356 11.3014C12.3356 10.3 11.5199 9.48519 10.5172 9.48519H10.4709C9.46828 9.48519 8.65251 10.3 8.65251 11.3014V11.3155C8.65251 11.6387 8.91484 11.9008 9.23847 11.9008C9.56209 11.9008 9.82442 11.6387 9.82442 11.3155V11.3014C9.82442 10.9453 10.1144 10.6557 10.4709 10.6557C10.6977 10.6557 10.9066 10.7366 11.0424 10.9255C11.2038 11.1498 11.2019 11.4612 11.0378 11.6841L8.78464 14.3133Z" stroke="#74B629" stroke-width="0.4" mask="url(#path-1-outside-1_2418_2847)"/>
<path d="M16.0726 15.1217C16.3963 15.1217 16.6586 14.8596 16.6586 14.5364V9.91288C16.6586 9.39407 16.0005 9.13463 15.6456 9.51211L13.3139 11.9906C12.9568 12.3702 12.8744 12.9489 13.113 13.412C13.325 13.8234 13.7593 14.0896 14.2229 14.0896H15.4867V14.5364C15.4867 14.8597 15.749 15.1217 16.0726 15.1217ZM14.2228 12.9191C14.1813 12.9191 14.1474 12.8854 14.1474 12.8438C14.1474 12.8246 14.1547 12.8062 14.1679 12.7922L15.4866 11.3904V12.9191H14.2228Z" stroke="#74B629" stroke-width="0.4" mask="url(#path-1-outside-1_2418_2847)"/>
<path d="M19.3916 16.6526C19.2953 16.422 19.0574 16.2744 18.8074 16.293C18.5632 16.3112 18.3519 16.4847 18.2865 16.7202C18.1456 17.2272 18.7233 17.6494 19.1653 17.3696C19.4021 17.2197 19.4992 16.911 19.3916 16.6526Z" stroke="#74B629" stroke-width="0.4" mask="url(#path-1-outside-1_2418_2847)"/>
<path d="M29.8047 17.1397C29.5947 16.3098 29.2552 15.6927 28.9965 15.3095L29.091 15.2151C29.3166 14.9897 29.3166 14.6128 29.091 14.3874L27.199 12.4977C26.8313 12.1305 26.2782 11.995 25.7815 12.1504V5.73896C25.7815 3.12593 23.653 1 21.0367 1H4.74477C2.12848 1 0 3.12593 0 5.73896V18.5126C0 20.9279 1.81793 22.927 4.15882 23.2162V26.8282C4.15882 27.3017 4.72116 27.5823 5.10016 27.2934L10.4038 23.2521H14.4409L13.4607 24.2311C13.1949 24.4966 13.0485 24.8496 13.0485 25.225C13.0485 25.6005 13.1949 25.9534 13.4607 26.219L15.3527 28.1086C15.5784 28.334 15.9556 28.3341 16.1813 28.1086L16.3449 27.9452C16.7215 28.2126 17.3235 28.5607 18.1341 28.7819C18.6926 28.9343 19.2469 29 19.7877 29C21.513 29 23.0996 28.3319 24.2354 27.6812C24.5713 27.4888 24.8865 27.2465 25.1724 26.961L27.936 24.2009C28.2217 23.9156 28.4643 23.6007 28.6571 23.265C29.5113 21.7776 30.4038 19.5076 29.8047 17.1397ZM26.2038 13.2566C26.2641 13.2566 26.3244 13.2795 26.3703 13.3254L27.8479 14.8013L24.5242 18.1209L23.0466 16.645C22.9547 16.5533 22.9547 16.4041 23.0466 16.3124L26.0373 13.3254C26.0832 13.2795 26.1435 13.2566 26.2038 13.2566ZM10.2058 22.0816C10.0773 22.0816 9.95245 22.1237 9.85038 22.2016L5.33073 25.6456V22.6669C5.33073 22.3437 5.0684 22.0817 4.74477 22.0817C2.77467 22.0816 1.17191 20.4806 1.17191 18.5126V5.73896C1.17191 3.77134 2.77467 2.17048 4.74477 2.17048H21.0368C23.0069 2.17048 24.6097 3.77134 24.6097 5.73896V13.0956L22.2173 15.485C21.6759 16.0269 21.6755 16.9309 22.2177 17.4725L24.8945 20.146C25.1964 20.4475 25.1964 20.9383 24.8945 21.2398L22.2136 23.9174C21.9161 24.2145 21.4163 24.2149 21.1184 23.9174L18.4418 21.244C17.8996 20.7049 16.9938 20.7031 16.4513 21.2438L15.6126 22.0816H10.2058V22.0816ZM14.2893 25.3913C14.1975 25.2997 14.1975 25.1504 14.2893 25.0587L17.2801 22.0717C17.3698 21.9821 17.5236 21.9823 17.6131 22.0717L19.0908 23.5476L15.7671 26.8672L14.2893 25.3913ZM27.6405 22.6826C27.4992 22.9286 27.3199 23.1609 27.1073 23.3732L24.3437 26.1333C24.1311 26.3457 23.8984 26.5249 23.6523 26.6659C21.7893 27.7332 20.0578 28.071 18.5061 27.6697C17.9331 27.5216 17.4899 27.294 17.1888 27.1024L19.9194 24.3753L20.2897 24.7451C21.0432 25.4905 22.2895 25.497 23.0422 24.7453L25.7233 22.0675C26.0908 21.7004 26.2933 21.2122 26.2933 20.693C26.2933 20.1738 26.0909 19.6856 25.7233 19.3185L25.3529 18.9486L28.1476 16.1574C28.3316 16.4664 28.5465 16.9151 28.6842 17.4903C29.0625 19.0711 28.7114 20.818 27.6405 22.6826Z" stroke="#74B629" stroke-width="0.4" mask="url(#path-1-outside-1_2418_2847)"/>
</g>
<defs>
<clipPath id="clip0_2418_2847">
<rect width="30" height="30" fill="white"/>
</clipPath>
</defs>
</svg>
