<svg width="50" height="50" viewBox="0 0 50 50" fill="none" xmlns="http://www.w3.org/2000/svg">
<rect width="50" height="50" rx="6" fill="#74B629"/>
<mask id="path-2-outside-1_2304_4835" maskUnits="userSpaceOnUse" x="10" y="9" width="30" height="32" fill="black">
<rect fill="white" x="10" y="9" width="30" height="32"/>
<path d="M36.5 15H32.5V13.5C32.5 13.3674 32.4473 13.2402 32.3536 13.1464C32.2598 13.0527 32.1326 13 32 13H28V12.5C27.9992 11.8372 27.7356 11.2018 27.2669 10.7331C26.7982 10.2644 26.1628 10.0008 25.5 10H24.5C23.8372 10.0008 23.2018 10.2644 22.7331 10.7331C22.2644 11.2018 22.0008 11.8372 22 12.5V13H18C17.8674 13 17.7402 13.0527 17.6464 13.1464C17.5527 13.2402 17.5 13.3674 17.5 13.5V15H13.5C12.8372 15.0008 12.2018 15.2644 11.7331 15.7331C11.2644 16.2018 11.0008 16.8372 11 17.5V37.5C11.0008 38.1628 11.2644 38.7982 11.7331 39.2669C12.2018 39.7356 12.8372 39.9992 13.5 40H36.5C37.1628 39.9992 37.7982 39.7356 38.2669 39.2669C38.7356 38.7982 38.9992 38.1628 39 37.5V17.5C38.9992 16.8372 38.7356 16.2018 38.2669 15.7331C37.7982 15.2644 37.1628 15.0008 36.5 15ZM23 12.5C23 12.1022 23.158 11.7206 23.4393 11.4393C23.7206 11.158 24.1022 11 24.5 11H25.5C25.8978 11 26.2794 11.158 26.5607 11.4393C26.842 11.7206 27 12.1022 27 12.5V13H23V12.5ZM18.5 14H31.5V15.5C31.5 15.8978 31.342 16.2794 31.0607 16.5607C30.7794 16.842 30.3978 17 30 17H20C19.6022 17 19.2206 16.842 18.9393 16.5607C18.658 16.2794 18.5 15.8978 18.5 15.5V14ZM13.5 16H17.55C17.666 16.5643 17.9731 17.0713 18.4194 17.4356C18.8657 17.8 19.4239 17.9993 20 18H30C30.5761 17.9993 31.1343 17.8 31.5806 17.4356C32.0269 17.0713 32.334 16.5643 32.45 16H36.5C36.8978 16 37.2794 16.158 37.5607 16.4393C37.842 16.7206 38 17.1022 38 17.5V19H12V17.5C12 17.1022 12.158 16.7206 12.4393 16.4393C12.7206 16.158 13.1022 16 13.5 16ZM36.5 39H13.5C13.1022 39 12.7206 38.842 12.4393 38.5607C12.158 38.2794 12 37.8978 12 37.5V20H38V37.5C38 37.8978 37.842 38.2794 37.5607 38.5607C37.2794 38.842 36.8978 39 36.5 39Z"/>
<path d="M30.5 15H19.5V16H30.5V15Z"/>
<path d="M20 27.5V26.5C20 26.3674 19.9473 26.2402 19.8536 26.1464C19.7598 26.0527 19.6326 26 19.5 26H17.5C17.3674 26 17.2402 26.0527 17.1464 26.1464C17.0527 26.2402 17 26.3674 17 26.5V27.5H16C15.8674 27.5 15.7402 27.5527 15.6464 27.6464C15.5527 27.7402 15.5 27.8674 15.5 28V30C15.5 30.1326 15.5527 30.2598 15.6464 30.3536C15.7402 30.4473 15.8674 30.5 16 30.5H17V31.5C17 31.6326 17.0527 31.7598 17.1464 31.8536C17.2402 31.9473 17.3674 32 17.5 32H19.5C19.6326 32 19.7598 31.9473 19.8536 31.8536C19.9473 31.7598 20 31.6326 20 31.5V30.5H21C21.1326 30.5 21.2598 30.4473 21.3536 30.3536C21.4473 30.2598 21.5 30.1326 21.5 30V28C21.5 27.8674 21.4473 27.7402 21.3536 27.6464C21.2598 27.5527 21.1326 27.5 21 27.5H20ZM20.5 29.5H19.5C19.3674 29.5 19.2402 29.5527 19.1464 29.6464C19.0527 29.7402 19 29.8674 19 30V31H18V30C18 29.8674 17.9473 29.7402 17.8536 29.6464C17.7598 29.5527 17.6326 29.5 17.5 29.5H16.5V28.5H17.5C17.6326 28.5 17.7598 28.4473 17.8536 28.3536C17.9473 28.2598 18 28.1326 18 28V27H19V28C19 28.1326 19.0527 28.2598 19.1464 28.3536C19.2402 28.4473 19.3674 28.5 19.5 28.5H20.5V29.5Z"/>
<path d="M18.5 24C17.5111 24 16.5444 24.2932 15.7221 24.8427C14.8999 25.3921 14.259 26.173 13.8806 27.0866C13.5022 28.0002 13.4031 29.0055 13.5961 29.9755C13.789 30.9454 14.2652 31.8363 14.9645 32.5355C15.6637 33.2348 16.5546 33.711 17.5245 33.9039C18.4945 34.0969 19.4998 33.9978 20.4134 33.6194C21.327 33.241 22.1079 32.6001 22.6573 31.7779C23.2068 30.9556 23.5 29.9889 23.5 29C23.4985 27.6744 22.9713 26.4034 22.0339 25.4661C21.0966 24.5287 19.8256 24.0015 18.5 24ZM18.5 33C17.7089 33 16.9355 32.7654 16.2777 32.3259C15.6199 31.8864 15.1072 31.2616 14.8045 30.5307C14.5017 29.7998 14.4225 28.9956 14.5769 28.2196C14.7312 27.4437 15.1122 26.731 15.6716 26.1716C16.231 25.6122 16.9437 25.2312 17.7196 25.0769C18.4956 24.9225 19.2998 25.0017 20.0307 25.3045C20.7616 25.6072 21.3864 26.1199 21.8259 26.7777C22.2654 27.4355 22.5 28.2089 22.5 29C22.4988 30.0605 22.077 31.0772 21.3271 31.8271C20.5772 32.577 19.5605 32.9988 18.5 33Z"/>
<path d="M28.5 24H26.5V25H28.5V24Z"/>
<path d="M36.5 24H29.5V25H36.5V24Z"/>
<path d="M36.5 26.5H26.5V27.5H36.5V26.5Z"/>
<path d="M36.5 29H26.5V30H36.5V29Z"/>
<path d="M36.5 31.5H26.5V32.5H36.5V31.5Z"/>
<path d="M36.5 34H26.5V35H36.5V34Z"/>
</mask>
<path d="M36.5 15H32.5V13.5C32.5 13.3674 32.4473 13.2402 32.3536 13.1464C32.2598 13.0527 32.1326 13 32 13H28V12.5C27.9992 11.8372 27.7356 11.2018 27.2669 10.7331C26.7982 10.2644 26.1628 10.0008 25.5 10H24.5C23.8372 10.0008 23.2018 10.2644 22.7331 10.7331C22.2644 11.2018 22.0008 11.8372 22 12.5V13H18C17.8674 13 17.7402 13.0527 17.6464 13.1464C17.5527 13.2402 17.5 13.3674 17.5 13.5V15H13.5C12.8372 15.0008 12.2018 15.2644 11.7331 15.7331C11.2644 16.2018 11.0008 16.8372 11 17.5V37.5C11.0008 38.1628 11.2644 38.7982 11.7331 39.2669C12.2018 39.7356 12.8372 39.9992 13.5 40H36.5C37.1628 39.9992 37.7982 39.7356 38.2669 39.2669C38.7356 38.7982 38.9992 38.1628 39 37.5V17.5C38.9992 16.8372 38.7356 16.2018 38.2669 15.7331C37.7982 15.2644 37.1628 15.0008 36.5 15ZM23 12.5C23 12.1022 23.158 11.7206 23.4393 11.4393C23.7206 11.158 24.1022 11 24.5 11H25.5C25.8978 11 26.2794 11.158 26.5607 11.4393C26.842 11.7206 27 12.1022 27 12.5V13H23V12.5ZM18.5 14H31.5V15.5C31.5 15.8978 31.342 16.2794 31.0607 16.5607C30.7794 16.842 30.3978 17 30 17H20C19.6022 17 19.2206 16.842 18.9393 16.5607C18.658 16.2794 18.5 15.8978 18.5 15.5V14ZM13.5 16H17.55C17.666 16.5643 17.9731 17.0713 18.4194 17.4356C18.8657 17.8 19.4239 17.9993 20 18H30C30.5761 17.9993 31.1343 17.8 31.5806 17.4356C32.0269 17.0713 32.334 16.5643 32.45 16H36.5C36.8978 16 37.2794 16.158 37.5607 16.4393C37.842 16.7206 38 17.1022 38 17.5V19H12V17.5C12 17.1022 12.158 16.7206 12.4393 16.4393C12.7206 16.158 13.1022 16 13.5 16ZM36.5 39H13.5C13.1022 39 12.7206 38.842 12.4393 38.5607C12.158 38.2794 12 37.8978 12 37.5V20H38V37.5C38 37.8978 37.842 38.2794 37.5607 38.5607C37.2794 38.842 36.8978 39 36.5 39Z" fill="white"/>
<path d="M30.5 15H19.5V16H30.5V15Z" fill="white"/>
<path d="M20 27.5V26.5C20 26.3674 19.9473 26.2402 19.8536 26.1464C19.7598 26.0527 19.6326 26 19.5 26H17.5C17.3674 26 17.2402 26.0527 17.1464 26.1464C17.0527 26.2402 17 26.3674 17 26.5V27.5H16C15.8674 27.5 15.7402 27.5527 15.6464 27.6464C15.5527 27.7402 15.5 27.8674 15.5 28V30C15.5 30.1326 15.5527 30.2598 15.6464 30.3536C15.7402 30.4473 15.8674 30.5 16 30.5H17V31.5C17 31.6326 17.0527 31.7598 17.1464 31.8536C17.2402 31.9473 17.3674 32 17.5 32H19.5C19.6326 32 19.7598 31.9473 19.8536 31.8536C19.9473 31.7598 20 31.6326 20 31.5V30.5H21C21.1326 30.5 21.2598 30.4473 21.3536 30.3536C21.4473 30.2598 21.5 30.1326 21.5 30V28C21.5 27.8674 21.4473 27.7402 21.3536 27.6464C21.2598 27.5527 21.1326 27.5 21 27.5H20ZM20.5 29.5H19.5C19.3674 29.5 19.2402 29.5527 19.1464 29.6464C19.0527 29.7402 19 29.8674 19 30V31H18V30C18 29.8674 17.9473 29.7402 17.8536 29.6464C17.7598 29.5527 17.6326 29.5 17.5 29.5H16.5V28.5H17.5C17.6326 28.5 17.7598 28.4473 17.8536 28.3536C17.9473 28.2598 18 28.1326 18 28V27H19V28C19 28.1326 19.0527 28.2598 19.1464 28.3536C19.2402 28.4473 19.3674 28.5 19.5 28.5H20.5V29.5Z" fill="white"/>
<path d="M18.5 24C17.5111 24 16.5444 24.2932 15.7221 24.8427C14.8999 25.3921 14.259 26.173 13.8806 27.0866C13.5022 28.0002 13.4031 29.0055 13.5961 29.9755C13.789 30.9454 14.2652 31.8363 14.9645 32.5355C15.6637 33.2348 16.5546 33.711 17.5245 33.9039C18.4945 34.0969 19.4998 33.9978 20.4134 33.6194C21.327 33.241 22.1079 32.6001 22.6573 31.7779C23.2068 30.9556 23.5 29.9889 23.5 29C23.4985 27.6744 22.9713 26.4034 22.0339 25.4661C21.0966 24.5287 19.8256 24.0015 18.5 24ZM18.5 33C17.7089 33 16.9355 32.7654 16.2777 32.3259C15.6199 31.8864 15.1072 31.2616 14.8045 30.5307C14.5017 29.7998 14.4225 28.9956 14.5769 28.2196C14.7312 27.4437 15.1122 26.731 15.6716 26.1716C16.231 25.6122 16.9437 25.2312 17.7196 25.0769C18.4956 24.9225 19.2998 25.0017 20.0307 25.3045C20.7616 25.6072 21.3864 26.1199 21.8259 26.7777C22.2654 27.4355 22.5 28.2089 22.5 29C22.4988 30.0605 22.077 31.0772 21.3271 31.8271C20.5772 32.577 19.5605 32.9988 18.5 33Z" fill="white"/>
<path d="M28.5 24H26.5V25H28.5V24Z" fill="white"/>
<path d="M36.5 24H29.5V25H36.5V24Z" fill="white"/>
<path d="M36.5 26.5H26.5V27.5H36.5V26.5Z" fill="white"/>
<path d="M36.5 29H26.5V30H36.5V29Z" fill="white"/>
<path d="M36.5 31.5H26.5V32.5H36.5V31.5Z" fill="white"/>
<path d="M36.5 34H26.5V35H36.5V34Z" fill="white"/>
<path d="M36.5 15H32.5V13.5C32.5 13.3674 32.4473 13.2402 32.3536 13.1464C32.2598 13.0527 32.1326 13 32 13H28V12.5C27.9992 11.8372 27.7356 11.2018 27.2669 10.7331C26.7982 10.2644 26.1628 10.0008 25.5 10H24.5C23.8372 10.0008 23.2018 10.2644 22.7331 10.7331C22.2644 11.2018 22.0008 11.8372 22 12.5V13H18C17.8674 13 17.7402 13.0527 17.6464 13.1464C17.5527 13.2402 17.5 13.3674 17.5 13.5V15H13.5C12.8372 15.0008 12.2018 15.2644 11.7331 15.7331C11.2644 16.2018 11.0008 16.8372 11 17.5V37.5C11.0008 38.1628 11.2644 38.7982 11.7331 39.2669C12.2018 39.7356 12.8372 39.9992 13.5 40H36.5C37.1628 39.9992 37.7982 39.7356 38.2669 39.2669C38.7356 38.7982 38.9992 38.1628 39 37.5V17.5C38.9992 16.8372 38.7356 16.2018 38.2669 15.7331C37.7982 15.2644 37.1628 15.0008 36.5 15ZM23 12.5C23 12.1022 23.158 11.7206 23.4393 11.4393C23.7206 11.158 24.1022 11 24.5 11H25.5C25.8978 11 26.2794 11.158 26.5607 11.4393C26.842 11.7206 27 12.1022 27 12.5V13H23V12.5ZM18.5 14H31.5V15.5C31.5 15.8978 31.342 16.2794 31.0607 16.5607C30.7794 16.842 30.3978 17 30 17H20C19.6022 17 19.2206 16.842 18.9393 16.5607C18.658 16.2794 18.5 15.8978 18.5 15.5V14ZM13.5 16H17.55C17.666 16.5643 17.9731 17.0713 18.4194 17.4356C18.8657 17.8 19.4239 17.9993 20 18H30C30.5761 17.9993 31.1343 17.8 31.5806 17.4356C32.0269 17.0713 32.334 16.5643 32.45 16H36.5C36.8978 16 37.2794 16.158 37.5607 16.4393C37.842 16.7206 38 17.1022 38 17.5V19H12V17.5C12 17.1022 12.158 16.7206 12.4393 16.4393C12.7206 16.158 13.1022 16 13.5 16ZM36.5 39H13.5C13.1022 39 12.7206 38.842 12.4393 38.5607C12.158 38.2794 12 37.8978 12 37.5V20H38V37.5C38 37.8978 37.842 38.2794 37.5607 38.5607C37.2794 38.842 36.8978 39 36.5 39Z" stroke="white" stroke-width="0.2" mask="url(#path-2-outside-1_2304_4835)"/>
<path d="M30.5 15H19.5V16H30.5V15Z" stroke="white" stroke-width="0.2" mask="url(#path-2-outside-1_2304_4835)"/>
<path d="M20 27.5V26.5C20 26.3674 19.9473 26.2402 19.8536 26.1464C19.7598 26.0527 19.6326 26 19.5 26H17.5C17.3674 26 17.2402 26.0527 17.1464 26.1464C17.0527 26.2402 17 26.3674 17 26.5V27.5H16C15.8674 27.5 15.7402 27.5527 15.6464 27.6464C15.5527 27.7402 15.5 27.8674 15.5 28V30C15.5 30.1326 15.5527 30.2598 15.6464 30.3536C15.7402 30.4473 15.8674 30.5 16 30.5H17V31.5C17 31.6326 17.0527 31.7598 17.1464 31.8536C17.2402 31.9473 17.3674 32 17.5 32H19.5C19.6326 32 19.7598 31.9473 19.8536 31.8536C19.9473 31.7598 20 31.6326 20 31.5V30.5H21C21.1326 30.5 21.2598 30.4473 21.3536 30.3536C21.4473 30.2598 21.5 30.1326 21.5 30V28C21.5 27.8674 21.4473 27.7402 21.3536 27.6464C21.2598 27.5527 21.1326 27.5 21 27.5H20ZM20.5 29.5H19.5C19.3674 29.5 19.2402 29.5527 19.1464 29.6464C19.0527 29.7402 19 29.8674 19 30V31H18V30C18 29.8674 17.9473 29.7402 17.8536 29.6464C17.7598 29.5527 17.6326 29.5 17.5 29.5H16.5V28.5H17.5C17.6326 28.5 17.7598 28.4473 17.8536 28.3536C17.9473 28.2598 18 28.1326 18 28V27H19V28C19 28.1326 19.0527 28.2598 19.1464 28.3536C19.2402 28.4473 19.3674 28.5 19.5 28.5H20.5V29.5Z" stroke="white" stroke-width="0.2" mask="url(#path-2-outside-1_2304_4835)"/>
<path d="M18.5 24C17.5111 24 16.5444 24.2932 15.7221 24.8427C14.8999 25.3921 14.259 26.173 13.8806 27.0866C13.5022 28.0002 13.4031 29.0055 13.5961 29.9755C13.789 30.9454 14.2652 31.8363 14.9645 32.5355C15.6637 33.2348 16.5546 33.711 17.5245 33.9039C18.4945 34.0969 19.4998 33.9978 20.4134 33.6194C21.327 33.241 22.1079 32.6001 22.6573 31.7779C23.2068 30.9556 23.5 29.9889 23.5 29C23.4985 27.6744 22.9713 26.4034 22.0339 25.4661C21.0966 24.5287 19.8256 24.0015 18.5 24ZM18.5 33C17.7089 33 16.9355 32.7654 16.2777 32.3259C15.6199 31.8864 15.1072 31.2616 14.8045 30.5307C14.5017 29.7998 14.4225 28.9956 14.5769 28.2196C14.7312 27.4437 15.1122 26.731 15.6716 26.1716C16.231 25.6122 16.9437 25.2312 17.7196 25.0769C18.4956 24.9225 19.2998 25.0017 20.0307 25.3045C20.7616 25.6072 21.3864 26.1199 21.8259 26.7777C22.2654 27.4355 22.5 28.2089 22.5 29C22.4988 30.0605 22.077 31.0772 21.3271 31.8271C20.5772 32.577 19.5605 32.9988 18.5 33Z" stroke="white" stroke-width="0.2" mask="url(#path-2-outside-1_2304_4835)"/>
<path d="M28.5 24H26.5V25H28.5V24Z" stroke="white" stroke-width="0.2" mask="url(#path-2-outside-1_2304_4835)"/>
<path d="M36.5 24H29.5V25H36.5V24Z" stroke="white" stroke-width="0.2" mask="url(#path-2-outside-1_2304_4835)"/>
<path d="M36.5 26.5H26.5V27.5H36.5V26.5Z" stroke="white" stroke-width="0.2" mask="url(#path-2-outside-1_2304_4835)"/>
<path d="M36.5 29H26.5V30H36.5V29Z" stroke="white" stroke-width="0.2" mask="url(#path-2-outside-1_2304_4835)"/>
<path d="M36.5 31.5H26.5V32.5H36.5V31.5Z" stroke="white" stroke-width="0.2" mask="url(#path-2-outside-1_2304_4835)"/>
<path d="M36.5 34H26.5V35H36.5V34Z" stroke="white" stroke-width="0.2" mask="url(#path-2-outside-1_2304_4835)"/>
</svg>
