<svg width="55" height="55" viewBox="0 0 55 55" fill="none" xmlns="http://www.w3.org/2000/svg">
<path d="M51.0191 26.356C51.2332 25.5323 51.3404 24.6844 51.338 23.8333C51.3236 20.5664 49.7309 17.508 47.0626 15.6237C47.4686 14.3543 47.6743 13.0294 47.6721 11.6967C47.6721 5.02791 43.1409 0 37.1324 0C33.2363 0.0637641 29.6279 2.06421 27.5092 5.335C25.3904 2.06421 21.782 0.0637641 17.886 0C11.8774 0 7.34626 5.02791 7.34626 11.6967C7.34955 12.7775 7.48935 13.8537 7.76235 14.8995C5.51565 16.2057 4.0212 18.5 3.73435 21.0833C-0.236801 24.5773 -1.15901 30.4037 1.53894 34.9536C4.23688 39.5036 9.79082 41.4885 14.7607 39.6788C16.1925 42.349 18.9808 44.011 22.0102 44H27.1508C28.0733 46.3245 30.1297 48.0084 32.5902 48.4541L34.3563 53.0447C34.8187 54.2288 35.9622 55.006 37.2332 55C38.9482 54.9979 40.3381 53.6079 40.3401 51.8925V48.5008C41.9555 48.2269 43.3642 47.2456 44.1811 45.8251C48.7835 45.7499 52.8521 42.816 54.3778 38.4724C55.9034 34.1289 54.5632 29.2936 51.0191 26.356ZM17.886 1.83333C23.8798 1.83333 26.5716 7.27741 26.6843 7.50749C26.8433 7.81907 27.1596 8.01906 27.5092 8.02908C27.8611 8.02859 28.1816 7.8266 28.334 7.50933C28.4467 7.27741 31.1385 1.83333 37.1324 1.83333C42.0961 1.83333 45.8391 6.07291 45.8391 11.6967C45.8391 18.1133 40.297 22.9497 31.9083 30.25H23.11C14.7213 22.9497 9.17925 18.1142 9.17925 11.6967C9.17925 6.07291 12.9222 1.83333 17.886 1.83333ZM37.2332 53.1666C36.7183 53.1705 36.2539 52.8578 36.0637 52.3792L34.6038 48.5833H38.5071V51.8925C38.5061 52.5958 37.9363 53.1656 37.2332 53.1666ZM39.4236 46.75H33.9246C31.9621 46.7557 30.1483 45.7052 29.1763 44H37.9288C39.1681 44.8259 40.5642 45.3876 42.0301 45.65C41.3438 46.3512 40.4047 46.7475 39.4236 46.75ZM44.0061 44C42.9433 43.9992 41.8888 43.8131 40.89 43.45C42.7926 42.535 44.0035 40.6114 44.0061 38.5C44.0061 37.9937 43.5957 37.5833 43.0896 37.5833C42.5834 37.5833 42.1731 37.9937 42.1731 38.5C42.1731 40.525 40.5318 42.1666 38.5071 42.1666C38.464 42.1719 38.4215 42.1805 38.3797 42.1923C38.3253 42.1787 38.2698 42.1701 38.2138 42.1666H22.0102C19.6976 42.1725 17.5637 40.9236 16.4361 38.9042C17.2061 38.4685 17.9206 37.9412 18.5642 37.334C18.9324 36.9864 18.9492 36.4061 18.6017 36.0378C18.2543 35.6695 17.6741 35.6527 17.3058 36.0002C16.5795 36.6871 15.7454 37.2501 14.8368 37.6667C10.9771 39.44 6.40497 38.3286 3.78963 34.9813C1.17428 31.6339 1.2011 26.9279 3.85441 23.6106C4.01413 24.4476 4.30357 25.2545 4.71225 26.0021C4.95825 26.4446 5.51629 26.6039 5.95868 26.3578C6.40107 26.1118 6.56028 25.5536 6.31428 25.1112C5.78401 24.1603 5.50811 23.0887 5.51327 22C5.51327 21.8634 5.52152 21.725 5.52976 21.5976C5.64959 19.6087 6.69268 17.7905 8.3489 16.6833C10.1966 21.175 14.4949 25.1625 20.3229 30.25H19.2607C18.7545 30.25 18.3442 30.6604 18.3442 31.1666C18.3442 31.6729 18.7545 32.0833 19.2607 32.0833H35.7576C36.2638 32.0833 36.6741 31.6729 36.6741 31.1666C36.6741 30.6604 36.2638 30.25 35.7576 30.25H34.6954C40.2265 25.4201 44.3736 21.5774 46.3624 17.3626C48.3406 18.9282 49.4975 21.3102 49.5051 23.8333C49.5088 24.7055 49.3705 25.5724 49.0954 26.4C48.8159 27.2572 48.3969 28.0625 47.8554 28.7833C47.7095 28.9778 47.6469 29.2223 47.6813 29.463C47.7156 29.7036 47.8442 29.9208 48.0387 30.0666C48.1969 30.1864 48.3901 30.2509 48.5886 30.25C48.877 30.25 49.1487 30.1141 49.3218 29.8833C49.7114 29.3569 50.0491 28.7939 50.3299 28.2022C53.0391 30.7883 53.9025 34.763 52.5105 38.2405C51.1185 41.7179 47.7512 43.9984 44.0061 44Z" fill="#74B629"/>
<path d="M21.0937 21.0833H24.7597V24.75C24.7597 25.7625 25.5803 26.5833 26.5927 26.5833H28.4257C29.438 26.5833 30.2586 25.7625 30.2586 24.75V21.0833H33.9246C34.937 21.0833 35.7576 20.2625 35.7576 19.25V17.4167C35.7576 16.4041 34.937 15.5833 33.9246 15.5833H30.2586V11.9167C30.2586 10.9041 29.438 10.0833 28.4257 10.0833H26.5927C25.5803 10.0833 24.7597 10.9041 24.7597 11.9167V15.5833H21.0937C20.0814 15.5833 19.2607 16.4041 19.2607 17.4167V19.25C19.2607 20.2625 20.0814 21.0833 21.0937 21.0833ZM21.0937 17.4167H25.6762C26.1823 17.4167 26.5927 17.0063 26.5927 16.5V11.9167H28.4257V16.5C28.4257 17.0063 28.836 17.4167 29.3421 17.4167H33.9246V19.25H29.3421C28.836 19.25 28.4257 19.6604 28.4257 20.1667V24.75H26.5927V20.1667C26.5927 19.6604 26.1823 19.25 25.6762 19.25H21.0937V17.4167Z" fill="#74B629"/>
<path d="M32.7918 34.8333H24.7597C24.2535 34.8333 23.8432 35.2437 23.8432 35.75C23.8432 36.2562 24.2535 36.6666 24.7597 36.6666H32.7918C33.6999 36.6647 34.5301 37.179 34.9328 37.9931C35.0888 38.3053 35.4086 38.5019 35.7576 38.5C36.0751 38.4998 36.3699 38.3353 36.5368 38.0651C36.7037 37.7949 36.7189 37.4576 36.577 37.1736C35.8631 35.7368 34.3959 34.8296 32.7918 34.8333Z" fill="#74B629"/>
<path d="M8.26275 27.5C7.75659 27.5 7.34626 27.9104 7.34626 28.4166C7.34626 28.9229 7.75659 29.3333 8.26275 29.3333C10.2874 29.3333 11.9287 30.9749 11.9287 33C11.9287 33.5062 12.3391 33.9166 12.8452 33.9166C13.3514 33.9166 13.7617 33.5062 13.7617 33C13.7587 29.9637 11.2985 27.503 8.26275 27.5Z" fill="#74B629"/>
</svg>
