<svg width="24" height="24" viewBox="0 0 24 24" fill="none" xmlns="http://www.w3.org/2000/svg">
<path d="M20.999 16.42V19.956C20.9991 20.2092 20.9032 20.453 20.7306 20.6382C20.558 20.8234 20.3216 20.9363 20.0691 20.954C19.6321 20.984 19.2751 21 18.9991 21C10.1626 21 3 13.837 3 5C3 4.724 3.015 4.367 3.046 3.93C3.06372 3.67744 3.17657 3.44101 3.36178 3.26841C3.547 3.09581 3.79078 2.99989 4.04394 3H7.57975C7.70378 2.99987 7.82343 3.04586 7.91546 3.12902C8.00748 3.21218 8.06531 3.32658 8.07772 3.45C8.10072 3.68 8.12172 3.863 8.14171 4.002C8.34044 5.38892 8.74768 6.73783 9.34965 8.003C9.44464 8.203 9.38265 8.442 9.20266 8.57L7.04478 10.112C8.36416 13.1865 10.8141 15.6365 13.8884 16.956L15.4283 14.802C15.4913 14.714 15.5831 14.6509 15.6878 14.6237C15.7925 14.5964 15.9034 14.6068 16.0013 14.653C17.2662 15.2539 18.6147 15.6602 20.0011 15.858C20.14 15.878 20.323 15.899 20.551 15.922C20.6743 15.9346 20.7884 15.9926 20.8714 16.0846C20.9543 16.1766 20.9992 16.2961 20.999 16.42Z" fill="#74B629"/>
</svg>
