<svg width="55" height="55" viewBox="0 0 55 55" fill="none" xmlns="http://www.w3.org/2000/svg">
<path d="M42.397 14.3055L42.3373 14.2611C39.2417 11.9608 34.9339 12.2484 32.1716 14.9398L42.397 14.3055ZM42.397 14.3055L42.4566 14.2611M42.397 14.3055L42.4566 14.2611M42.4566 14.2611C45.5519 11.9598 49.8603 12.2476 52.6223 14.9399C55.6141 17.8658 55.6675 22.663 52.7417 25.6548C52.7022 25.6951 52.6626 25.7348 52.6225 25.7739L52.6222 25.7742L43.1279 35.1208C42.9326 35.3128 42.6698 35.4205 42.3959 35.4209C42.122 35.4205 41.8591 35.3128 41.6639 35.1208L32.1718 25.7754L32.1715 25.7752C29.1795 22.8495 29.1256 18.0523 32.0512 15.0602L32.0513 15.0602M42.4566 14.2611L32.0513 15.0602M32.0513 15.0602C32.0908 15.0197 32.1309 14.9797 32.1714 14.94L32.0513 15.0602ZM37.6487 14.7959C36.1489 14.7917 34.7077 15.3782 33.637 16.4286C31.4678 18.5479 31.4274 22.0244 33.5466 24.1936C33.5765 24.2243 33.6067 24.2544 33.6371 24.2841C33.6371 24.2841 33.6371 24.2841 33.6371 24.2841L42.3257 32.8421L42.3958 32.9112L42.466 32.8421L51.1545 24.2888C53.3235 22.1738 53.3672 18.7009 51.2522 16.5319L51.2522 16.5319C51.22 16.499 51.1875 16.4664 51.1546 16.4343L51.0847 16.5058L51.1545 16.4342C48.9229 14.2557 45.3608 14.2557 43.1292 16.4342L43.1291 16.4344C42.7225 16.833 42.0718 16.8331 41.6651 16.4345C40.5943 15.3808 39.151 14.792 37.6487 14.7959ZM37.6487 14.7959C37.6486 14.7959 37.6485 14.7959 37.6484 14.7959L37.6487 14.8959L37.649 14.7959C37.6489 14.7959 37.6488 14.7959 37.6487 14.7959ZM28.6458 42.4959H28.6459H37.8125C39.7662 42.4959 41.35 40.9121 41.35 38.9584V37.9125H43.4416V38.9583C43.4379 42.0656 40.9199 44.5838 37.8124 44.5875H28.6459C21.7434 44.5794 16.1497 38.9858 16.1416 32.0833V30.9375V30.8376L16.0417 30.8375C11.6692 30.8325 8.12575 27.2891 8.12076 22.9165V6.875C8.12076 6.29741 8.58904 5.82913 9.16663 5.82913H15.205H15.2627L15.2916 5.77925C15.4838 5.44739 15.76 5.17119 16.0919 4.97895L16.1417 4.95006V4.89242V2.29163V2.19163H16.0417H8.02087C6.06717 2.19163 4.48337 3.77544 4.48337 5.72913V40.1041V40.2041H4.58337H8.02087C9.86411 40.2041 11.3584 41.6984 11.3584 43.5416V50.4166V50.5166H11.4584H13.9464H14.0171L14.0406 50.45C14.499 49.1537 15.7346 48.225 17.1875 48.225C19.0307 48.225 20.525 49.7193 20.525 51.5625C20.525 53.4057 19.0307 54.9 17.1875 54.9C15.7346 54.9 14.499 53.9713 14.0406 52.675L14.0171 52.6084H13.9464H6.67863H6.60792L6.58435 52.675C6.12601 53.9713 4.89037 54.9 3.4375 54.9C1.59426 54.9 0.1 53.4057 0.1 51.5625C0.1 50.1096 1.0287 48.874 2.32496 48.4158L2.39163 48.3922V48.3215V5.72936C2.39543 2.62189 4.91352 0.1038 8.02099 0.0999999L33.1292 0.1V2.19174H18.3334H18.2334V2.29174V4.89242V4.95006L18.2832 4.97895C18.6151 5.17119 18.8913 5.44739 19.0835 5.77925L19.1124 5.82913H19.1701H25.2084C25.786 5.82913 26.2542 6.29741 26.2542 6.875V22.9165C26.2493 27.2891 22.7058 30.8325 18.3333 30.8375L18.2334 30.8376V30.9375V32.0834V32.0835C18.2398 37.8314 22.8978 42.4895 28.6458 42.4959ZM9.16674 50.5167H9.26674V50.4167V43.5417C9.26674 42.8537 8.70892 42.2959 8.02085 42.296H4.58337H4.48337V42.396V48.3215V48.3922L4.55003 48.4158C5.49802 48.7509 6.24917 49.5021 6.58435 50.4501L6.60792 50.5167H6.67863H9.16674ZM10.3125 7.92087H10.2125V8.02087V16.0758V16.1671L10.3034 16.1754C11.7332 16.3058 13.1174 16.7731 14.3386 17.5482C15.1732 18.1313 16.1686 18.4407 17.1868 18.4335C18.2262 18.4546 19.2398 18.1096 20.0506 17.4589C21.203 16.5847 22.6147 16.121 24.0611 16.1417L24.1625 16.1432V16.0417V8.02087V7.92087H24.0625H10.3125ZM10.2125 22.9167V22.9169C10.2163 26.1345 12.8239 28.742 16.0416 28.7459H16.0417H18.3334H18.3335C21.5511 28.742 24.1587 26.1346 24.1625 22.9169V22.9167V18.3334V18.2354L24.0646 18.2334C23.0247 18.212 22.0105 18.557 21.1994 19.2079C20.047 20.0821 18.6353 20.5458 17.1889 20.5251L17.187 20.5251C15.8063 20.5316 14.4547 20.1283 13.3033 19.3661L13.3027 19.3657C12.4016 18.7784 11.3821 18.4099 10.3247 18.2801L10.2125 18.2663V18.3793V22.9167ZM18.4334 51.5626C18.4334 50.8746 17.8755 50.3167 17.1875 50.3167C16.4995 50.3167 15.9416 50.8744 15.9416 51.5626C15.9416 52.2507 16.4994 52.8085 17.1875 52.8085C17.8756 52.8085 18.4334 52.2507 18.4334 51.5626ZM2.19163 51.5625C2.19163 52.2506 2.74945 52.8084 3.4375 52.8084C4.12555 52.8084 4.68337 52.2506 4.68337 51.5625C4.68337 50.8744 4.12555 50.3166 3.4375 50.3166C2.74945 50.3166 2.19163 50.8744 2.19163 51.5625Z" fill="#74B629" stroke="white" stroke-width="0.2"/>
</svg>
