<svg width="55" height="55" viewBox="0 0 55 55" fill="none" xmlns="http://www.w3.org/2000/svg">
<path d="M26.613 26.6129H24.8388C24.8388 27.3187 24.5584 27.9956 24.0593 28.4947C23.5602 28.9938 22.8833 29.2742 22.1775 29.2742C21.4717 29.2742 20.7948 28.9938 20.2957 28.4947C19.7966 27.9956 19.5162 27.3187 19.5162 26.6129H17.742C17.742 27.7893 18.2093 28.9174 19.0411 29.7493C19.8729 30.5811 21.0011 31.0484 22.1775 31.0484C23.3538 31.0484 24.482 30.5811 25.3138 29.7493C26.1457 28.9174 26.613 27.7893 26.613 26.6129Z" fill="#74B629"/>
<path d="M18.6291 22.1774H20.4033C20.4033 21.4716 20.1229 20.7947 19.6238 20.2956C19.1247 19.7965 18.4478 19.5161 17.742 19.5161C17.0362 19.5161 16.3593 19.7965 15.8602 20.2956C15.3611 20.7947 15.0807 21.4716 15.0807 22.1774H16.8549C16.8549 21.9422 16.9484 21.7165 17.1147 21.5502C17.2811 21.3838 17.5067 21.2903 17.742 21.2903C17.9773 21.2903 18.2029 21.3838 18.3693 21.5502C18.5356 21.7165 18.6291 21.9422 18.6291 22.1774Z" fill="#74B629"/>
<path d="M26.613 21.2903C26.8482 21.2903 27.0739 21.3838 27.2402 21.5502C27.4066 21.7165 27.5001 21.9422 27.5001 22.1774H29.2742C29.2742 21.4716 28.9939 20.7947 28.4948 20.2956C27.9957 19.7965 27.3188 19.5161 26.613 19.5161C25.9071 19.5161 25.2302 19.7965 24.7311 20.2956C24.2321 20.7947 23.9517 21.4716 23.9517 22.1774H25.7259C25.7259 21.9422 25.8193 21.7165 25.9857 21.5502C26.1521 21.3838 26.3777 21.2903 26.613 21.2903Z" fill="#74B629"/>
<path d="M27.5001 45.2419H32.8226V47.0161H27.5001V45.2419Z" fill="#74B629"/>
<path d="M51.4516 7.09681H50.5645V6.20972C50.5645 5.5039 50.2841 4.82699 49.7851 4.3279C49.286 3.82882 48.6091 3.54843 47.9032 3.54843C47.1974 3.54843 46.5205 3.82882 46.0214 4.3279C45.5223 4.82699 45.242 5.5039 45.242 6.20972V7.09681H44.3549C43.4138 7.09681 42.5112 7.47066 41.8458 8.13611C41.1803 8.80156 40.8065 9.7041 40.8065 10.6452V21.2903C40.8065 22.2314 41.1803 23.134 41.8458 23.7994C42.5112 24.4649 43.4138 24.8387 44.3549 24.8387H45.242V27.5C45.242 27.7353 45.3354 27.9609 45.5018 28.1273C45.6681 28.2936 45.8938 28.3871 46.1291 28.3871H47.0161V47.0161C47.0161 47.7219 46.7358 48.3988 46.2367 48.8979C45.7376 49.397 45.0607 49.6774 44.3549 49.6774V46.86C44.3663 44.4345 43.5442 42.0786 42.0263 40.1868C40.5083 38.295 38.3865 36.982 36.0162 36.4676L28.3871 34.7742V32.9166C30.8453 31.4894 32.7422 29.2654 33.7638 26.6129H34.1533C35.1121 26.6115 36.0382 26.2641 36.7614 25.6346C37.4847 25.0051 37.9564 24.1357 38.09 23.1863C38.2235 22.2368 38.01 21.271 37.4885 20.4664C36.967 19.6617 36.1727 19.0723 35.2515 18.8065L36.3337 17.184C37.7169 15.1093 38.3384 12.6194 38.0926 10.138C37.8468 7.65666 36.7487 5.33714 34.9854 3.57416L34.5746 3.16343C33.5758 2.15797 32.3875 1.36064 31.0784 0.81764C29.7693 0.274637 28.3655 -0.00325722 26.9483 5.06349e-05H17.4067C15.9894 -0.00430652 14.5853 0.272579 13.2758 0.81467C11.9662 1.35676 10.7772 2.15329 9.77767 3.15811L9.36517 3.57061C7.60216 5.33364 6.50444 7.65304 6.25877 10.1342C6.01309 12.6154 6.63465 15.105 8.01768 17.1795L9.09993 18.802C8.17471 19.065 7.37598 19.654 6.85137 20.4602C6.32676 21.2664 6.11176 22.2353 6.24611 23.1877C6.38045 24.1402 6.85506 25.0117 7.58221 25.6414C8.30935 26.271 9.23985 26.6161 10.2017 26.6129H10.5911C11.6128 29.2654 13.5097 31.4894 15.9678 32.9166V34.7742L8.3388 36.4694C5.96873 36.9837 3.8472 38.2964 2.32926 40.1879C0.811317 42.0793 -0.0109345 44.4348 0.000109824 46.86V54.1129C0.000109824 54.3481 0.0935713 54.5738 0.259934 54.7401C0.426296 54.9065 0.651933 54.9999 0.887205 54.9999H43.4678C43.703 54.9999 43.9287 54.9065 44.095 54.7401C44.2614 54.5738 44.3549 54.3481 44.3549 54.1129V51.4516C45.5308 51.4502 46.6581 50.9824 47.4897 50.1509C48.3212 49.3194 48.7889 48.192 48.7903 47.0161V28.3871H49.6774C49.9127 28.3871 50.1383 28.2936 50.3047 28.1273C50.4711 27.9609 50.5645 27.7353 50.5645 27.5V24.8387H51.4516C52.3927 24.8387 53.2953 24.4649 53.9607 23.7994C54.6262 23.134 55 22.2314 55 21.2903V10.6452C55 9.7041 54.6262 8.80156 53.9607 8.13611C53.2953 7.47066 52.3927 7.09681 51.4516 7.09681ZM36.371 22.621C36.3685 23.1809 36.1544 23.7192 35.7715 24.1277C35.3886 24.5363 34.8653 24.7849 34.3067 24.8236C34.4977 23.9545 34.5949 23.0673 34.5968 22.1774V20.4485C35.0976 20.5507 35.5477 20.8228 35.871 21.2186C36.1943 21.6145 36.3709 22.1099 36.371 22.621ZM7.98397 11.197C7.9811 10.0134 8.21277 8.84097 8.66559 7.74743C9.11842 6.6539 9.78342 5.66092 10.6222 4.82585L11.0347 4.41335C11.8695 3.574 12.8626 2.90856 13.9563 2.45556C15.0501 2.00256 16.2228 1.77098 17.4067 1.77424H26.9483C28.1323 1.77103 29.3053 2.00271 30.3992 2.45587C31.4931 2.90902 32.4862 3.57466 33.3212 4.41424L33.7319 4.82496C35.2048 6.29797 36.1219 8.23576 36.3271 10.3087C36.5323 12.3816 36.0131 14.4616 34.8576 16.1949L34.273 17.0713C34.117 16.9345 33.9173 16.8577 33.7097 16.8549H30.7894C29.1657 16.8595 27.5732 16.4093 26.1922 15.5553C24.8113 14.7013 23.6971 13.4776 22.9759 12.0229C22.8939 11.8854 22.7776 11.7715 22.6385 11.6925C22.4993 11.6134 22.342 11.5719 22.1819 11.5719C22.0219 11.5719 21.8645 11.6134 21.7254 11.6925C21.5862 11.7715 21.4699 11.8854 21.388 12.0229C20.6661 13.4789 19.5505 14.7035 18.1678 15.5576C16.7852 16.4117 15.1908 16.8611 13.5656 16.8549H10.6453C10.4377 16.8577 10.238 16.9345 10.0819 17.0713L9.49735 16.1949C8.50914 14.7155 7.98242 12.976 7.98397 11.197ZM7.98397 22.621C7.98407 22.1099 8.1607 21.6145 8.48399 21.2186C8.80728 20.8228 9.25738 20.5507 9.75816 20.4485V22.1774C9.76003 23.0673 9.85728 23.9545 10.0482 24.8236C9.48965 24.7849 8.96638 24.5363 8.5835 24.1277C8.20061 23.7192 7.98643 23.1809 7.98397 22.621ZM11.5323 22.1774V18.629H13.5656C15.2561 18.6351 16.9229 18.2309 18.4229 17.4511C19.9229 16.6713 21.2113 15.5392 22.1775 14.1519C23.1437 15.5392 24.4321 16.6713 25.932 17.4511C27.432 18.2309 29.0988 18.6351 30.7894 18.629H32.8226V22.1774C32.8226 25.0007 31.7011 27.7083 29.7047 29.7047C27.7084 31.701 25.0008 32.8226 22.1775 32.8226C19.3542 32.8226 16.6466 31.701 14.6502 29.7047C12.6539 27.7083 11.5323 25.0007 11.5323 22.1774ZM22.1775 34.5968C23.6946 34.5945 25.1983 34.3121 26.613 33.7638V35.1166L22.1775 39.5521L17.742 35.1166V33.7638C19.1566 34.3121 20.6603 34.5945 22.1775 34.5968ZM42.5807 53.2258H37.2581V46.129H35.4839V53.2258H8.87106V46.129H7.09687V53.2258H1.7743V46.86C1.7646 44.8392 2.44924 42.8763 3.71365 41.2999C4.97806 39.7236 6.74551 38.6292 8.72025 38.2001L16.5719 36.4597L21.5503 41.4371C21.7167 41.6035 21.9423 41.6969 22.1775 41.6969C22.4127 41.6969 22.6383 41.6035 22.8047 41.4371L27.783 36.4597L35.6347 38.2037C37.6089 38.6327 39.3759 39.7265 40.6402 41.3021C41.9045 42.8778 42.5896 44.8398 42.5807 46.86V53.2258ZM47.0161 6.20972C47.0161 5.97444 47.1096 5.74881 47.276 5.58245C47.4423 5.41608 47.668 5.32262 47.9032 5.32262C48.1385 5.32262 48.3642 5.41608 48.5305 5.58245C48.6969 5.74881 48.7903 5.97444 48.7903 6.20972V7.09681H47.0161V6.20972ZM44.3549 8.871H51.4516C51.9222 8.871 52.3734 9.05793 52.7062 9.39065C53.0389 9.72338 53.2258 10.1746 53.2258 10.6452H42.5807C42.5807 10.1746 42.7676 9.72338 43.1003 9.39065C43.433 9.05793 43.8843 8.871 44.3549 8.871ZM53.2258 12.4194V19.5161H42.5807V12.4194H53.2258ZM48.7903 26.6129H47.0161V24.8387H48.7903V26.6129ZM51.4516 23.0645H44.3549C43.8843 23.0645 43.433 22.8776 43.1003 22.5449C42.7676 22.2121 42.5807 21.7609 42.5807 21.2903H53.2258C53.2258 21.7609 53.0389 22.2121 52.7062 22.5449C52.3734 22.8776 51.9222 23.0645 51.4516 23.0645Z" fill="#74B629"/>
<path d="M45.242 16.8549H47.0161V18.629H48.7903V16.8549H50.5645V15.0807H48.7903V13.3065H47.0161V15.0807H45.242V16.8549Z" fill="#74B629"/>
</svg>
