<svg width="40" height="40" viewBox="0 0 40 40" fill="none" xmlns="http://www.w3.org/2000/svg">
<path d="M15.2381 12.4V23.7999L24.1905 29.3099L25.7143 27.0299L18.0952 22.4699V12.4H15.2381Z" fill="#74B629"/>
<path d="M30.3238 19.9999C30.6109 21.8884 30.4843 23.8165 29.9527 25.6515C29.4211 27.4865 28.4971 29.1848 27.2444 30.6294C25.9917 32.074 24.44 33.2306 22.6961 34.0196C20.9523 34.8086 19.0577 35.2113 17.1429 35.1999C9.71429 35.1999 3.80952 29.3099 3.80952 21.8999C3.80952 14.4899 9.71429 8.59997 17.1429 8.59997C18.4762 8.59997 19.7524 8.78997 20.9524 9.15097V5.23698C19.7333 4.95198 18.4571 4.79999 17.1429 4.79999C7.61905 4.79999 0 12.4 0 21.8999C0 31.3999 7.61905 38.9999 17.1429 38.9999C19.5575 39.0098 21.9468 38.5088 24.153 37.5298C26.3592 36.5508 28.3321 35.1161 29.9414 33.3204C31.5508 31.5248 32.7599 29.409 33.4891 27.1129C34.2183 24.8167 34.4508 22.3924 34.1714 19.9999H30.3238Z" fill="#74B629"/>
<path d="M34.2857 6.69998V1H30.4762V6.69998H24.7619V10.5H30.4762V16.1999H34.2857V10.5H40V6.69998H34.2857Z" fill="#74B629"/>
</svg>
