<svg width="44" height="55" viewBox="0 0 44 55" fill="none" xmlns="http://www.w3.org/2000/svg">
<path d="M35.0419 35.4272L28.1603 33.8853V31.6933C30.8197 29.7585 32.5604 26.6165 32.5604 23.0645V22.6822C34.7384 21.3649 36.0803 19.0301 36.0803 16.4371V8.29797C36.0802 3.72224 32.3877 0 27.8486 0H16.7492C14.7648 0 13.0075 1.2003 12.2717 3.05511L12.0596 3.59003C11.7807 4.29357 11.257 4.8665 10.5855 5.20453C8.94167 6.0339 7.91999 7.69997 7.91999 9.55303V16.4369C7.91999 19.0299 9.26196 21.3657 11.44 22.682V23.0643C11.44 26.6162 13.1806 29.7583 15.84 31.6931V33.8852L8.95846 35.4261C3.68375 36.6087 0 41.2366 0 46.6843V55H44V46.6843C44.0002 41.2367 40.3166 36.6088 35.0419 35.4272ZM11.4403 14.1447V20.4981C10.3305 19.4692 9.68029 18.0124 9.68029 16.4361V9.55223C9.68029 8.37589 10.3288 7.31675 11.3734 6.79157C12.4295 6.25936 13.254 5.35718 13.6949 4.24998L13.907 3.7141C14.3743 2.5352 15.4901 1.77402 16.7494 1.77402H27.8488C31.4172 1.77402 34.3203 4.70059 34.3203 8.29781V16.4369C34.3203 18.0132 33.67 19.4698 32.5604 20.4989V14.1457C32.5604 11.2368 30.2134 8.87105 27.3287 8.87105C24.8428 8.87105 22.6859 10.6542 22.1983 13.1105L22.1597 13.3066H21.8419L21.8033 13.1105C21.3157 10.6542 19.1589 8.87105 16.6721 8.87105C13.7871 8.87105 11.4403 11.2368 11.4403 14.1447ZM13.2003 23.0645V14.1447C13.2003 12.2153 14.7578 10.6451 16.6719 10.6451C18.322 10.6451 19.7537 11.8284 20.0765 13.4589L20.3995 15.0806H23.6019L23.9239 13.4589C24.2469 11.8284 25.6787 10.6451 27.3286 10.6451C29.2425 10.6451 30.8002 12.2152 30.8002 14.1447V23.0645C30.8002 27.9559 26.8526 31.9355 22.0002 31.9355C17.1477 31.9355 13.2003 27.956 13.2003 23.0645ZM17.6001 34.3511V32.7294C18.9413 33.3522 20.4285 33.7097 22.0002 33.7097C23.5718 33.7097 25.059 33.3522 26.4002 32.7294V34.3511L22.0002 41.7442L17.6001 34.3511ZM21.0515 43.5982L15.9124 40.3612L16.5301 36.002L21.0515 43.5982ZM27.4703 36.002L28.0881 40.3603L22.949 43.5973L27.4703 36.002ZM33.4401 53.226H10.5602V49.6776H8.80022V53.226H1.76014V46.6845C1.76014 42.076 4.87713 38.1586 9.33957 37.1597L11.4401 36.6886V43.4679H8.80022C6.85887 43.4679 5.28026 45.0594 5.28026 47.0163V51.4518H7.92031V49.6776H7.04024V47.0163C7.04024 46.0378 7.82955 45.2421 8.80022 45.2421H15.8401C16.8108 45.2421 17.6001 46.0378 17.6001 47.0163V49.6776H16.7201V51.4518H19.3601V47.0163C19.3601 45.0593 17.7813 43.4679 15.8401 43.4679H13.2001V36.2939L14.7603 35.9444L14.0079 41.2527L22.0002 46.2888L29.9924 41.2527L29.24 35.9444L30.8002 36.2939V43.5939C29.2858 43.9904 28.1602 45.3673 28.1602 47.0163C28.1602 48.9733 29.7389 50.5646 31.6801 50.5646C32.3243 50.5646 32.9201 50.3765 33.4401 50.0714V53.226ZM31.6801 45.2421C32.6508 45.2421 33.4401 46.0378 33.4401 47.0163C33.4401 47.9946 32.6508 48.7905 31.6801 48.7905C30.7095 48.7905 29.9202 47.9948 29.9202 47.0163C29.9202 46.0378 30.7095 45.2421 31.6801 45.2421ZM42.2402 53.2258H35.2003V49.6775H33.9841C34.7233 49.0263 35.2003 48.0816 35.2003 47.0161C35.2003 45.367 34.0747 43.9902 32.5602 43.5937V36.6886L34.6607 37.1597C39.1232 38.1586 42.2402 42.076 42.2402 46.6845V53.2258Z" fill="#74B629"/>
</svg>
