<svg width="25" height="25" viewBox="0 0 25 25" fill="none" xmlns="http://www.w3.org/2000/svg">
<path d="M21.9714 18.7621C21.9022 18.55 21.7188 18.3953 21.4978 18.3633L19.7836 18.1145L19.0172 16.5629C18.9182 16.3629 18.7145 16.2359 18.4912 16.2359C18.268 16.2359 18.0638 16.3629 17.9649 16.5629L17.1985 18.1145L15.4842 18.3633C15.4052 18.3746 15.331 18.402 15.2653 18.4422C15.1992 18.402 15.1249 18.3746 15.0459 18.3633L13.3316 18.1145L12.5652 16.5629C12.4663 16.3629 12.2622 16.2359 12.0393 16.2359C11.816 16.2359 11.6119 16.3629 11.513 16.5629L10.7465 18.1145L9.03228 18.3633C8.94547 18.3758 8.86414 18.4078 8.79375 18.4543C8.72298 18.4078 8.64164 18.3758 8.55484 18.3633L6.84057 18.1145L6.07416 16.5629C5.97523 16.3629 5.77111 16.2359 5.54823 16.2359C5.32495 16.2359 5.12083 16.3629 5.0219 16.5629L4.25588 18.1137L2.50369 18.3629C2.28119 18.3945 2.09623 18.5508 2.02781 18.7648C1.95938 18.9789 2.01959 19.2133 2.18265 19.368L3.45662 20.5762L3.16335 22.3168C3.12659 22.5363 3.21731 22.7582 3.39797 22.8887C3.57862 23.0191 3.81754 23.0363 4.01501 22.9328L5.54823 22.1274L7.08105 22.9328C7.27805 23.0357 7.51666 23.0199 7.69809 22.8887C7.87875 22.7582 7.96947 22.5363 7.93271 22.3168L7.63866 20.5715L8.79375 19.4465L9.94846 20.5715L9.65441 22.3168C9.61765 22.5363 9.70837 22.7582 9.88902 22.8887C10.0697 23.0191 10.3086 23.0363 10.5061 22.9328L12.0393 22.1274L13.5721 22.9328C13.7691 23.0357 14.0077 23.0199 14.1892 22.8887C14.3698 22.7582 14.4605 22.5363 14.4238 22.3168L14.1297 20.5715L15.2653 19.4656L16.4004 20.5715L16.1064 22.3168C16.0696 22.5363 16.1603 22.7582 16.341 22.8887C16.5216 23.0191 16.7605 23.0363 16.958 22.9328L18.4912 22.1274L20.0241 22.9328C20.2211 23.0357 20.4597 23.0199 20.6411 22.8887C20.8218 22.7582 20.9125 22.5363 20.8757 22.3168L20.5817 20.5715L21.8228 19.3625C21.9827 19.207 22.0402 18.9742 21.9714 18.7621ZM6.5997 19.9465C6.46206 20.0805 6.39871 20.2734 6.43077 20.4633L6.57937 21.3453L5.82116 20.9469C5.73553 20.902 5.64168 20.8797 5.54823 20.8797C5.45438 20.8797 5.36053 20.902 5.27529 20.9469L4.5167 21.3453L4.66529 20.4633C4.69774 20.2711 4.63205 20.075 4.49089 19.941L3.86994 19.3524L4.72785 19.2301C4.91945 19.2027 5.08525 19.0828 5.17088 18.9094L5.54823 18.1461L5.92518 18.9094C6.01042 19.082 6.17582 19.202 6.36665 19.2297L7.21009 19.3524L6.5997 19.9465ZM13.0908 19.9465C12.9531 20.0805 12.8902 20.2734 12.9218 20.4633L13.0704 21.3453L12.3122 20.9469C12.2266 20.902 12.1327 20.8797 12.0393 20.8797C11.9454 20.8797 11.8516 20.902 11.7663 20.9469L11.0078 21.3453L11.1563 20.4633C11.1884 20.2734 11.1251 20.0805 10.9874 19.9465L10.377 19.3524L11.2205 19.2297C11.4113 19.202 11.5767 19.082 11.6619 18.9094L12.0393 18.1461L12.4162 18.9094C12.5015 19.082 12.6669 19.202 12.8577 19.2297L13.7011 19.3524L13.0908 19.9465ZM19.5427 19.9465C19.4051 20.0805 19.3421 20.2734 19.3738 20.4633L19.5224 21.3453L18.7642 20.9469C18.6785 20.902 18.5847 20.8797 18.4912 20.8797C18.3974 20.8797 18.3035 20.902 18.2179 20.9469L17.4597 21.3453L17.6083 20.4633C17.6404 20.2734 17.577 20.0805 17.4394 19.9465L16.829 19.3524L17.6724 19.2297C17.8632 19.202 18.0287 19.082 18.1139 18.9094L18.4912 18.1461L18.8682 18.9094C18.9534 19.082 19.1188 19.202 19.3097 19.2297L20.1531 19.3524L19.5427 19.9465Z" fill="#74B629"/>
<path d="M12.0103 3C8.45278 3 5.55839 5.89141 5.55839 9.44531C5.55839 11.5266 6.53948 13.3816 8.06097 14.5691C8.10828 14.6203 8.16459 14.6629 8.22755 14.6945C9.29114 15.4711 10.5983 15.9297 12.0103 15.9297C13.4223 15.9297 14.7296 15.4711 15.7931 14.6945C15.8561 14.6629 15.9124 14.6203 15.9597 14.5691C17.4812 13.3816 18.4623 11.5266 18.4623 9.44531C18.4623 5.89141 15.5679 3 12.0103 3ZM12.0103 14.7578C10.9323 14.7578 9.92891 14.4309 9.0925 13.8703C9.24226 12.3746 10.4939 11.2031 12.0103 11.2031C13.5268 11.2031 14.7784 12.3746 14.9282 13.8703C14.0918 14.4309 13.0884 14.7578 12.0103 14.7578ZM10.2507 8.27344C10.2507 7.3043 11.0402 6.51563 12.0103 6.51563C12.9805 6.51563 13.77 7.3043 13.77 8.27344C13.77 9.24258 12.9805 10.0313 12.0103 10.0313C11.0402 10.0313 10.2507 9.24258 10.2507 8.27344ZM15.9437 12.9844C15.6239 11.9086 14.8809 11.0152 13.9108 10.5023C14.5419 9.96446 14.9431 9.16524 14.9431 8.27344C14.9431 6.6582 13.6277 5.34375 12.0104 5.34375C10.3935 5.34375 9.07768 6.6582 9.07768 8.27344C9.07768 9.16524 9.47887 9.96446 10.1104 10.5023C9.13985 11.0152 8.3969 11.9086 8.07704 12.9844C7.24063 12.0441 6.73151 10.8035 6.73151 9.44531C6.73151 6.5375 9.09958 4.17188 12.0104 4.17188C14.9212 4.17188 17.2893 6.5375 17.2893 9.44531C17.2892 10.8035 16.7801 12.0441 15.9437 12.9844Z" fill="#74B629"/>
</svg>
