<svg width="50" height="50" viewBox="0 0 50 50" fill="none" xmlns="http://www.w3.org/2000/svg">
<rect width="50" height="50" rx="6" fill="#74B629"/>
<path d="M37.2384 17.5979H31.5274V12.8711C31.5274 12.39 31.1339 12 30.6485 12H19.3516C18.8662 12 18.4727 12.39 18.4727 12.8711V17.5979H12.7617C11.22 17.5979 10 18.8385 10 20.335V35.263C10 36.7644 11.2246 38 12.7617 38H37.2383C38.7635 38 40 36.7772 40 35.263V20.335C40.0001 18.8232 38.7662 17.5979 37.2384 17.5979ZM20.2305 13.7421H29.7696V17.5979H20.2305V13.7421ZM14.707 36.2579H12.7617C12.2031 36.2579 11.7578 35.8082 11.7578 35.263V20.335C11.7578 19.7919 12.201 19.34 12.7617 19.34H14.707V36.2579ZM33.5352 36.2579H16.4648V19.34H33.5352V36.2579H33.5352ZM38.2422 35.263C38.2422 35.8138 37.7925 36.2579 37.2384 36.2579H35.293V19.34H37.2384C37.792 19.34 38.2422 19.7836 38.2422 20.335V35.263Z" fill="white"/>
<path d="M19.3516 30.536H22.2383V33.397C22.2383 33.878 22.6318 34.268 23.1172 34.268H26.8829C27.3683 34.268 27.7618 33.878 27.7618 33.397V30.536H30.6485C31.1339 30.536 31.5274 30.146 31.5274 29.665V25.933C31.5274 25.4519 31.1339 25.0619 30.6485 25.0619H27.7617V22.201C27.7617 21.7199 27.3682 21.3299 26.8828 21.3299H23.1172C22.6318 21.3299 22.2383 21.7199 22.2383 22.201V25.062H19.3516C18.8662 25.062 18.4727 25.452 18.4727 25.933V29.665C18.4727 30.146 18.8662 30.536 19.3516 30.536ZM20.2305 26.804H23.1172C23.6026 26.804 23.9961 26.414 23.9961 25.933V23.0721H26.004V25.933C26.004 26.4141 26.3975 26.8041 26.8829 26.8041H29.7696V28.794H26.8828C26.3974 28.794 26.0039 29.184 26.0039 29.665V32.5259H23.9961V29.665C23.9961 29.1839 23.6026 28.7939 23.1172 28.7939H20.2305V26.804Z" fill="white"/>
</svg>
