<svg width="44" height="44" viewBox="0 0 44 44" fill="none" xmlns="http://www.w3.org/2000/svg">
<rect width="44" height="44" rx="10" fill="#74B629"/>
<path d="M26.1069 14.6244L22.3988 18.3801C22.1268 18.6557 21.6864 18.6562 21.4138 18.3801L17.7057 14.6244C16.6607 13.5669 16.6596 11.8534 17.7053 10.7943C18.7494 9.73577 20.4416 9.73483 21.4872 10.7939L21.9063 11.2189L22.3255 10.7939C23.3641 9.74186 25.0554 9.72883 26.1074 10.7943C27.1519 11.8523 27.153 13.5658 26.1069 14.6244Z" fill="white"/>
<path d="M13.0364 14.9354C13.4311 15.0347 13.7018 15.4052 13.6815 15.8168L13.2705 22.783C13.2197 23.1541 13.2577 23.5268 13.3782 23.8763L15.0741 28.5835C15.2007 28.9514 15.5976 29.1456 15.9608 29.0169C16.3239 28.8883 16.5159 28.4857 16.3886 28.1184L14.6932 23.4111C14.5264 22.931 14.7736 22.3812 15.2795 22.2148C15.7524 22.0595 16.275 22.3342 16.4447 22.8268L17.2433 25.1437C17.5305 25.9763 18.1586 26.6352 18.9672 26.9518C20.1692 27.422 21.0774 28.5264 21.3405 29.8288L22 32.8283L16.8805 33.9831C16.6333 34.0389 16.3756 33.9542 16.2077 33.7621L12.7682 29.8251C11.4417 28.3059 10.8145 26.2798 11.0479 24.2657C11.0479 24.2638 11.0485 24.2617 11.0485 24.2598L11.9833 15.6701C12.0459 15.1481 12.54 14.8106 13.0364 14.9354Z" fill="white"/>
<path d="M30.9636 14.9354C30.5689 15.0347 30.2982 15.4052 30.3185 15.8168L30.7295 22.783C30.7803 23.1541 30.7423 23.5268 30.6218 23.8763L28.9259 28.5836C28.7994 28.9515 28.4024 29.1456 28.0392 29.017C27.6761 28.8884 27.4841 28.4857 27.6114 28.1185L29.3068 23.4111C29.4736 22.931 29.2264 22.3812 28.7205 22.2148C28.2476 22.0595 27.725 22.3342 27.5553 22.8268L26.7567 25.1437C26.4695 25.9763 25.8414 26.6352 25.0328 26.9518C23.8308 27.422 22.9226 28.5264 22.6595 29.8288L22 32.8283L27.1195 33.9831C27.3667 34.0388 27.6244 33.9542 27.7923 33.7621L31.2318 29.825C32.5583 28.3059 33.1855 26.2797 32.9521 24.2656C32.9521 24.2637 32.9515 24.2617 32.9515 24.2597L32.0167 15.67C31.9541 15.1481 31.46 14.8106 30.9636 14.9354Z" fill="white"/>
</svg>
