<svg width="50" height="50" viewBox="0 0 50 50" fill="none" xmlns="http://www.w3.org/2000/svg">
<rect width="50" height="50" rx="6" fill="#74B629"/>
<path d="M15.3583 33.9156L15.3583 23.2637L15.3583 23.2636H15.4083C15.4065 22.4952 15.7044 21.7575 16.2371 21.2109L15.3583 33.9156ZM15.3583 33.9156H14.0783C13.7309 33.9156 13.45 34.2006 13.45 34.5513V39.4143C13.45 39.7647 13.7309 40.05 14.0783 40.05H26.511C26.8587 40.05 27.1394 39.7647 27.1394 39.4143V34.5513C27.1394 34.2006 26.8587 33.9156 26.511 33.9156H25.636V33.4186C26.984 33.1183 27.9472 31.9083 27.9488 30.5075V30.5074V29.1071H35.9217C36.2696 29.1071 36.55 28.8218 36.55 28.4712V12.516C36.55 12.1653 36.2695 11.8802 35.9217 11.8802H34.6453V10.5859C34.6453 10.2355 34.3645 9.95 34.017 9.95H22.9682C22.6205 9.95 22.3401 10.2355 22.3401 10.5859V16.246L16.2596 21.1229C16.2394 21.139 16.2196 21.1566 16.2009 21.1763L15.3583 33.9156ZM22.3164 25.45L24.7701 22.9642M22.3164 25.45L24.7252 21.2616L24.7701 21.3071M22.3164 25.45C22.2165 25.5517 22.1563 25.687 22.1481 25.8303L22.3164 25.45ZM24.7701 22.9642C25.2215 22.5065 25.2215 21.765 24.7701 21.3071M24.7701 22.9642L24.7345 22.9291L24.7345 21.3422M24.7701 22.9642L24.7345 22.9291C25.1667 22.4908 25.1667 21.7807 24.7345 21.3422M24.7701 21.3071L24.7345 21.3422M24.7701 21.3071L24.7345 21.3422M24.7213 21.3288L19.605 25.4334L19.605 25.4334C19.3328 25.6516 18.9373 25.6052 18.7221 25.3293C18.507 25.0545 18.5529 24.6549 18.8245 24.4368L18.8246 24.4368L22.3401 21.6165V17.8685L17.0729 22.093C16.7779 22.409 16.6138 22.8279 16.6147 23.2635L16.6147 23.2636L16.6147 33.9156H24.3795V32.851C24.3795 32.5003 24.6604 32.2153 25.0078 32.2152C25.9373 32.2138 26.6912 31.4507 26.6924 30.5075V29.1073H24.9364C24.589 29.1073 24.3083 28.8218 24.3083 28.4714V27.1771H23.5122C24.0151 28.3092 23.9453 29.6192 23.3227 30.6903M24.7213 21.3288L23.3227 30.6903M24.7213 21.3288L24.7345 21.3422L24.7213 21.3288ZM23.3227 30.6903V30.6768H23.2727L23.3159 30.702C23.3182 30.6981 23.3204 30.6942 23.3227 30.6903ZM25.6233 23.8278L25.6234 23.8277C26.5443 22.8926 26.5443 21.3787 25.6234 20.4433L25.6233 20.4433L25.2146 20.0291C24.9891 19.8006 24.6299 19.7793 24.3797 19.9802C24.3797 19.9802 24.3797 19.9802 24.3797 19.9802L23.5965 20.6087V11.2217H33.3889V25.9054H23.5728L25.6233 23.8278ZM22.1717 30.1549C22.1717 30.1549 22.1716 30.1549 22.1716 30.155L22.2135 30.1823L22.1717 30.1549ZM22.3548 27.6732C22.3549 27.6733 22.3549 27.6734 22.355 27.6735L22.4001 27.6521L22.3547 27.673C22.3547 27.6731 22.3548 27.6731 22.3548 27.6732ZM23.4469 27.154C23.4504 27.1617 23.4539 27.1694 23.4574 27.1771L23.4469 27.154ZM15.098 37.0418L15.098 37.0424C15.1145 37.8742 15.7906 38.5384 16.6137 38.5272C17.4365 38.5162 18.0952 37.8346 18.0896 37.0023C18.0842 36.17 17.4167 35.4973 16.5937 35.4973L16.5931 35.4973C15.7591 35.5068 15.0912 36.1982 15.098 37.0418ZM16.5965 36.7689L16.5957 36.7398L16.5985 36.7687C16.7089 36.7581 16.815 36.8172 16.8651 36.9186L16.8651 36.9187C16.9152 37.0198 16.8986 37.1421 16.8235 37.2256L16.8234 37.2257C16.7484 37.3094 16.6309 37.3373 16.5271 37.2969C16.4235 37.2562 16.3544 37.1547 16.3545 37.0414L16.3544 37.0392C16.3483 36.8962 16.4568 36.776 16.5965 36.7689ZM28.4925 21.7728H28.4926C30.2429 21.7728 31.6608 20.3354 31.6608 18.5637C31.6606 16.7915 30.2429 15.3543 28.4924 15.3543C26.7421 15.3543 25.3241 16.7917 25.3245 18.5637V18.5637C25.3262 20.3346 26.7431 21.7708 28.4925 21.7728ZM25.8829 38.7783H14.7064V35.1872H25.8829V38.7783ZM35.2936 13.1519V27.8353H25.5647V27.1771H34.017C34.3644 27.1771 34.6453 26.8918 34.6453 26.5414V13.1519H35.2936ZM28.4926 16.626C29.5478 16.626 30.4044 17.493 30.4044 18.5637C30.4042 19.6343 29.5478 20.5012 28.4924 20.5012C27.4372 20.5012 26.5806 19.6344 26.581 18.5637C26.5821 17.4934 27.438 16.6271 28.4926 16.626Z" fill="white" stroke="white" stroke-width="0.1"/>
</svg>
