<svg width="50" height="50" viewBox="0 0 50 50" fill="none" xmlns="http://www.w3.org/2000/svg">
<rect width="50" height="50" rx="6" fill="#74B629"/>
<mask id="path-2-outside-1_2304_4846" maskUnits="userSpaceOnUse" x="9" y="9" width="32" height="32" fill="black">
<rect fill="white" x="9" y="9" width="32" height="32"/>
<path d="M34.5437 32.0337L31.3287 30.915C31.0937 30.8325 30.8325 30.8988 30.6625 31.0825C29.0862 32.8025 27.0749 33.75 25 33.75C22.925 33.75 20.9137 32.8025 19.3375 31.0812C19.1675 30.8975 18.9062 30.8325 18.6712 30.9137L15.4562 32.0324C12.09 33.2024 10 36.0162 10 39.3749C10 39.7199 10.28 39.9999 10.625 39.9999H39.375C39.72 39.9999 40 39.7199 40 39.3749C39.9999 36.0162 37.91 33.2037 34.5437 32.0337ZM11.28 38.75C11.5212 36.2175 13.2325 34.13 15.8662 33.2137L18.7012 32.2275C20.4737 34.0188 22.6962 35 25 35C27.3038 35 29.5262 34.0187 31.2987 32.2275L34.1337 33.2137C36.7674 34.13 38.4787 36.2175 38.72 38.75H11.28Z"/>
<path d="M23.125 22.5H21.875C21.53 22.5 21.25 22.78 21.25 23.125C21.25 23.47 21.53 23.75 21.875 23.75H23.125C23.47 23.75 23.75 23.47 23.75 23.125C23.75 22.78 23.47 22.5 23.125 22.5Z"/>
<path d="M28.1249 22.5H26.875C26.53 22.5 26.25 22.78 26.25 23.125C26.25 23.47 26.53 23.75 26.875 23.75H28.1249C28.4699 23.75 28.75 23.47 28.75 23.125C28.75 22.78 28.4699 22.5 28.1249 22.5Z"/>
<path d="M33.7499 20C33.7499 19.385 33.6824 18.76 33.5487 18.1425C33.4749 17.805 33.1411 17.5875 32.8049 17.6638C32.4674 17.7375 32.2525 18.07 32.3262 18.4075C32.4412 18.9375 32.4999 19.4737 32.4999 20C32.4999 20.4875 32.4374 20.9975 32.3037 21.6038C32.2786 21.715 32.2849 21.83 32.3212 21.9363C32.4387 22.2862 32.5 22.6975 32.5 23.125C32.5 24.3337 32.0474 24.99 31.835 24.9712C31.665 24.8662 31.455 24.8475 31.27 24.9225C31.085 24.9975 30.9475 25.1575 30.8987 25.3512C30.0237 28.88 27.6537 31.25 25 31.25C22.3462 31.25 19.9762 28.88 19.1012 25.3512C19.0525 25.1575 18.895 25.0125 18.71 24.9375C18.5237 24.86 18.295 24.8937 18.125 25C17.9687 25 17.5 24.335 17.5 23.125C17.5 22.6975 17.5612 22.2862 17.6788 21.9375C17.715 21.8299 17.7212 21.715 17.6963 21.6049C17.5625 20.9974 17.5 20.4874 17.5 19.9999C17.5 19.4737 17.5588 18.9375 17.6751 18.4074C17.7475 18.0699 17.5338 17.7374 17.1963 17.6637C16.8613 17.5887 16.5263 17.805 16.4526 18.1425C16.3176 18.76 16.2501 19.3849 16.2501 19.9999C16.2501 20.535 16.3101 21.0812 16.4401 21.7099C16.3151 22.1437 16.2501 22.6299 16.2501 23.1249C16.2501 24.8661 17.02 26.1887 18.0513 26.2487C19.1863 30.0125 21.9212 32.5 25 32.5C28.0787 32.5 30.8137 30.0125 31.9487 26.2487C32.98 26.1887 33.7499 24.8662 33.7499 23.125C33.7499 22.63 33.685 22.1437 33.5599 21.71C33.6899 21.0812 33.7499 20.535 33.7499 20Z"/>
<path d="M30.8225 26.2825L25.1975 24.4075C25.07 24.365 24.9312 24.365 24.8025 24.4075L19.1775 26.2825C18.85 26.3912 18.6738 26.7449 18.7825 27.0725C18.8913 27.4 19.2426 27.5787 19.5726 27.4675L25 25.6587L30.4274 27.4675C30.4937 27.49 30.5599 27.5 30.625 27.5C30.8862 27.5 31.13 27.335 31.2175 27.0725C31.3262 26.7449 31.15 26.3912 30.8225 26.2825Z"/>
<path d="M24.375 33.7499C24.03 33.7499 23.7499 34.03 23.7499 34.375V39.3749C23.7499 39.7199 24.03 39.9999 24.375 39.9999C24.72 39.9999 25 39.7199 25 39.3749V34.375C25 34.03 24.72 33.7499 24.375 33.7499Z"/>
<path d="M31.8749 33.7499C31.5299 33.7499 31.2499 34.03 31.2499 34.375V36.875C31.2499 37.22 31.5299 37.5 31.8749 37.5C32.2199 37.5 32.5 37.22 32.5 36.875V34.375C32.5 34.03 32.2199 33.7499 31.8749 33.7499Z"/>
<path d="M33.125 35H30.625C30.28 35 29.9999 35.28 29.9999 35.625C29.9999 35.97 30.28 36.25 30.625 36.25H33.125C33.47 36.25 33.75 35.97 33.75 35.625C33.7499 35.2799 33.47 35 33.125 35Z"/>
<path d="M33.7424 18.0225L33.0149 13.6562C32.6612 11.5375 30.8462 10 28.6987 10H21.3025C19.1537 10 17.34 11.5375 16.9862 13.6562L16.2587 18.0225C16.225 18.2212 16.29 18.4237 16.4325 18.5674C17.5312 19.665 19.6474 19.9275 22.4875 19.9837C22.8837 19.9975 23.1175 19.7162 23.125 19.3712C23.1325 19.0262 22.8575 18.74 22.5125 18.7337C20.495 18.6937 18.5175 18.5575 17.55 17.8775L18.2188 13.8613C18.4712 12.3475 19.7675 11.25 21.3025 11.25H28.6975C30.2324 11.25 31.5287 12.3476 31.7812 13.86L32.4499 17.8763C31.4824 18.5575 29.5049 18.6938 27.4874 18.7325C27.1424 18.74 26.8687 19.025 26.875 19.37C26.8812 19.7113 27.16 19.9825 27.5 19.9825C27.5037 19.9825 27.5075 19.9825 27.5125 19.9837C30.3524 19.9275 32.47 19.665 33.5675 18.5674C33.7112 18.4237 33.775 18.2212 33.7424 18.0225Z"/>
<path d="M25 13.75C22.9325 13.75 21.25 15.4325 21.25 17.5C21.25 19.5675 22.9325 21.25 25 21.25C27.0674 21.25 28.75 19.5675 28.75 17.5C28.75 15.4325 27.0674 13.75 25 13.75ZM25 20C23.6212 20 22.5 18.8788 22.5 17.5C22.5 16.1212 23.6212 15 25 15C26.3787 15 27.5 16.1212 27.5 17.5C27.5 18.8788 26.3787 20 25 20Z"/>
<path d="M25 18.75C25.6903 18.75 26.25 18.1903 26.25 17.5C26.25 16.8096 25.6903 16.25 25 16.25C24.3096 16.25 23.75 16.8096 23.75 17.5C23.75 18.1903 24.3096 18.75 25 18.75Z"/>
</mask>
<path d="M34.5437 32.0337L31.3287 30.915C31.0937 30.8325 30.8325 30.8988 30.6625 31.0825C29.0862 32.8025 27.0749 33.75 25 33.75C22.925 33.75 20.9137 32.8025 19.3375 31.0812C19.1675 30.8975 18.9062 30.8325 18.6712 30.9137L15.4562 32.0324C12.09 33.2024 10 36.0162 10 39.3749C10 39.7199 10.28 39.9999 10.625 39.9999H39.375C39.72 39.9999 40 39.7199 40 39.3749C39.9999 36.0162 37.91 33.2037 34.5437 32.0337ZM11.28 38.75C11.5212 36.2175 13.2325 34.13 15.8662 33.2137L18.7012 32.2275C20.4737 34.0188 22.6962 35 25 35C27.3038 35 29.5262 34.0187 31.2987 32.2275L34.1337 33.2137C36.7674 34.13 38.4787 36.2175 38.72 38.75H11.28Z" fill="white"/>
<path d="M23.125 22.5H21.875C21.53 22.5 21.25 22.78 21.25 23.125C21.25 23.47 21.53 23.75 21.875 23.75H23.125C23.47 23.75 23.75 23.47 23.75 23.125C23.75 22.78 23.47 22.5 23.125 22.5Z" fill="white"/>
<path d="M28.1249 22.5H26.875C26.53 22.5 26.25 22.78 26.25 23.125C26.25 23.47 26.53 23.75 26.875 23.75H28.1249C28.4699 23.75 28.75 23.47 28.75 23.125C28.75 22.78 28.4699 22.5 28.1249 22.5Z" fill="white"/>
<path d="M33.7499 20C33.7499 19.385 33.6824 18.76 33.5487 18.1425C33.4749 17.805 33.1411 17.5875 32.8049 17.6638C32.4674 17.7375 32.2525 18.07 32.3262 18.4075C32.4412 18.9375 32.4999 19.4737 32.4999 20C32.4999 20.4875 32.4374 20.9975 32.3037 21.6038C32.2786 21.715 32.2849 21.83 32.3212 21.9363C32.4387 22.2862 32.5 22.6975 32.5 23.125C32.5 24.3337 32.0474 24.99 31.835 24.9712C31.665 24.8662 31.455 24.8475 31.27 24.9225C31.085 24.9975 30.9475 25.1575 30.8987 25.3512C30.0237 28.88 27.6537 31.25 25 31.25C22.3462 31.25 19.9762 28.88 19.1012 25.3512C19.0525 25.1575 18.895 25.0125 18.71 24.9375C18.5237 24.86 18.295 24.8937 18.125 25C17.9687 25 17.5 24.335 17.5 23.125C17.5 22.6975 17.5612 22.2862 17.6788 21.9375C17.715 21.8299 17.7212 21.715 17.6963 21.6049C17.5625 20.9974 17.5 20.4874 17.5 19.9999C17.5 19.4737 17.5588 18.9375 17.6751 18.4074C17.7475 18.0699 17.5338 17.7374 17.1963 17.6637C16.8613 17.5887 16.5263 17.805 16.4526 18.1425C16.3176 18.76 16.2501 19.3849 16.2501 19.9999C16.2501 20.535 16.3101 21.0812 16.4401 21.7099C16.3151 22.1437 16.2501 22.6299 16.2501 23.1249C16.2501 24.8661 17.02 26.1887 18.0513 26.2487C19.1863 30.0125 21.9212 32.5 25 32.5C28.0787 32.5 30.8137 30.0125 31.9487 26.2487C32.98 26.1887 33.7499 24.8662 33.7499 23.125C33.7499 22.63 33.685 22.1437 33.5599 21.71C33.6899 21.0812 33.7499 20.535 33.7499 20Z" fill="white"/>
<path d="M30.8225 26.2825L25.1975 24.4075C25.07 24.365 24.9312 24.365 24.8025 24.4075L19.1775 26.2825C18.85 26.3912 18.6738 26.7449 18.7825 27.0725C18.8913 27.4 19.2426 27.5787 19.5726 27.4675L25 25.6587L30.4274 27.4675C30.4937 27.49 30.5599 27.5 30.625 27.5C30.8862 27.5 31.13 27.335 31.2175 27.0725C31.3262 26.7449 31.15 26.3912 30.8225 26.2825Z" fill="white"/>
<path d="M24.375 33.7499C24.03 33.7499 23.7499 34.03 23.7499 34.375V39.3749C23.7499 39.7199 24.03 39.9999 24.375 39.9999C24.72 39.9999 25 39.7199 25 39.3749V34.375C25 34.03 24.72 33.7499 24.375 33.7499Z" fill="white"/>
<path d="M31.8749 33.7499C31.5299 33.7499 31.2499 34.03 31.2499 34.375V36.875C31.2499 37.22 31.5299 37.5 31.8749 37.5C32.2199 37.5 32.5 37.22 32.5 36.875V34.375C32.5 34.03 32.2199 33.7499 31.8749 33.7499Z" fill="white"/>
<path d="M33.125 35H30.625C30.28 35 29.9999 35.28 29.9999 35.625C29.9999 35.97 30.28 36.25 30.625 36.25H33.125C33.47 36.25 33.75 35.97 33.75 35.625C33.7499 35.2799 33.47 35 33.125 35Z" fill="white"/>
<path d="M33.7424 18.0225L33.0149 13.6562C32.6612 11.5375 30.8462 10 28.6987 10H21.3025C19.1537 10 17.34 11.5375 16.9862 13.6562L16.2587 18.0225C16.225 18.2212 16.29 18.4237 16.4325 18.5674C17.5312 19.665 19.6474 19.9275 22.4875 19.9837C22.8837 19.9975 23.1175 19.7162 23.125 19.3712C23.1325 19.0262 22.8575 18.74 22.5125 18.7337C20.495 18.6937 18.5175 18.5575 17.55 17.8775L18.2188 13.8613C18.4712 12.3475 19.7675 11.25 21.3025 11.25H28.6975C30.2324 11.25 31.5287 12.3476 31.7812 13.86L32.4499 17.8763C31.4824 18.5575 29.5049 18.6938 27.4874 18.7325C27.1424 18.74 26.8687 19.025 26.875 19.37C26.8812 19.7113 27.16 19.9825 27.5 19.9825C27.5037 19.9825 27.5075 19.9825 27.5125 19.9837C30.3524 19.9275 32.47 19.665 33.5675 18.5674C33.7112 18.4237 33.775 18.2212 33.7424 18.0225Z" fill="white"/>
<path d="M25 13.75C22.9325 13.75 21.25 15.4325 21.25 17.5C21.25 19.5675 22.9325 21.25 25 21.25C27.0674 21.25 28.75 19.5675 28.75 17.5C28.75 15.4325 27.0674 13.75 25 13.75ZM25 20C23.6212 20 22.5 18.8788 22.5 17.5C22.5 16.1212 23.6212 15 25 15C26.3787 15 27.5 16.1212 27.5 17.5C27.5 18.8788 26.3787 20 25 20Z" fill="white"/>
<path d="M25 18.75C25.6903 18.75 26.25 18.1903 26.25 17.5C26.25 16.8096 25.6903 16.25 25 16.25C24.3096 16.25 23.75 16.8096 23.75 17.5C23.75 18.1903 24.3096 18.75 25 18.75Z" fill="white"/>
<path d="M34.5437 32.0337L31.3287 30.915C31.0937 30.8325 30.8325 30.8988 30.6625 31.0825C29.0862 32.8025 27.0749 33.75 25 33.75C22.925 33.75 20.9137 32.8025 19.3375 31.0812C19.1675 30.8975 18.9062 30.8325 18.6712 30.9137L15.4562 32.0324C12.09 33.2024 10 36.0162 10 39.3749C10 39.7199 10.28 39.9999 10.625 39.9999H39.375C39.72 39.9999 40 39.7199 40 39.3749C39.9999 36.0162 37.91 33.2037 34.5437 32.0337ZM11.28 38.75C11.5212 36.2175 13.2325 34.13 15.8662 33.2137L18.7012 32.2275C20.4737 34.0188 22.6962 35 25 35C27.3038 35 29.5262 34.0187 31.2987 32.2275L34.1337 33.2137C36.7674 34.13 38.4787 36.2175 38.72 38.75H11.28Z" stroke="white" stroke-width="0.4" mask="url(#path-2-outside-1_2304_4846)"/>
<path d="M23.125 22.5H21.875C21.53 22.5 21.25 22.78 21.25 23.125C21.25 23.47 21.53 23.75 21.875 23.75H23.125C23.47 23.75 23.75 23.47 23.75 23.125C23.75 22.78 23.47 22.5 23.125 22.5Z" stroke="white" stroke-width="0.4" mask="url(#path-2-outside-1_2304_4846)"/>
<path d="M28.1249 22.5H26.875C26.53 22.5 26.25 22.78 26.25 23.125C26.25 23.47 26.53 23.75 26.875 23.75H28.1249C28.4699 23.75 28.75 23.47 28.75 23.125C28.75 22.78 28.4699 22.5 28.1249 22.5Z" stroke="white" stroke-width="0.4" mask="url(#path-2-outside-1_2304_4846)"/>
<path d="M33.7499 20C33.7499 19.385 33.6824 18.76 33.5487 18.1425C33.4749 17.805 33.1411 17.5875 32.8049 17.6638C32.4674 17.7375 32.2525 18.07 32.3262 18.4075C32.4412 18.9375 32.4999 19.4737 32.4999 20C32.4999 20.4875 32.4374 20.9975 32.3037 21.6038C32.2786 21.715 32.2849 21.83 32.3212 21.9363C32.4387 22.2862 32.5 22.6975 32.5 23.125C32.5 24.3337 32.0474 24.99 31.835 24.9712C31.665 24.8662 31.455 24.8475 31.27 24.9225C31.085 24.9975 30.9475 25.1575 30.8987 25.3512C30.0237 28.88 27.6537 31.25 25 31.25C22.3462 31.25 19.9762 28.88 19.1012 25.3512C19.0525 25.1575 18.895 25.0125 18.71 24.9375C18.5237 24.86 18.295 24.8937 18.125 25C17.9687 25 17.5 24.335 17.5 23.125C17.5 22.6975 17.5612 22.2862 17.6788 21.9375C17.715 21.8299 17.7212 21.715 17.6963 21.6049C17.5625 20.9974 17.5 20.4874 17.5 19.9999C17.5 19.4737 17.5588 18.9375 17.6751 18.4074C17.7475 18.0699 17.5338 17.7374 17.1963 17.6637C16.8613 17.5887 16.5263 17.805 16.4526 18.1425C16.3176 18.76 16.2501 19.3849 16.2501 19.9999C16.2501 20.535 16.3101 21.0812 16.4401 21.7099C16.3151 22.1437 16.2501 22.6299 16.2501 23.1249C16.2501 24.8661 17.02 26.1887 18.0513 26.2487C19.1863 30.0125 21.9212 32.5 25 32.5C28.0787 32.5 30.8137 30.0125 31.9487 26.2487C32.98 26.1887 33.7499 24.8662 33.7499 23.125C33.7499 22.63 33.685 22.1437 33.5599 21.71C33.6899 21.0812 33.7499 20.535 33.7499 20Z" stroke="white" stroke-width="0.4" mask="url(#path-2-outside-1_2304_4846)"/>
<path d="M30.8225 26.2825L25.1975 24.4075C25.07 24.365 24.9312 24.365 24.8025 24.4075L19.1775 26.2825C18.85 26.3912 18.6738 26.7449 18.7825 27.0725C18.8913 27.4 19.2426 27.5787 19.5726 27.4675L25 25.6587L30.4274 27.4675C30.4937 27.49 30.5599 27.5 30.625 27.5C30.8862 27.5 31.13 27.335 31.2175 27.0725C31.3262 26.7449 31.15 26.3912 30.8225 26.2825Z" stroke="white" stroke-width="0.4" mask="url(#path-2-outside-1_2304_4846)"/>
<path d="M24.375 33.7499C24.03 33.7499 23.7499 34.03 23.7499 34.375V39.3749C23.7499 39.7199 24.03 39.9999 24.375 39.9999C24.72 39.9999 25 39.7199 25 39.3749V34.375C25 34.03 24.72 33.7499 24.375 33.7499Z" stroke="white" stroke-width="0.4" mask="url(#path-2-outside-1_2304_4846)"/>
<path d="M31.8749 33.7499C31.5299 33.7499 31.2499 34.03 31.2499 34.375V36.875C31.2499 37.22 31.5299 37.5 31.8749 37.5C32.2199 37.5 32.5 37.22 32.5 36.875V34.375C32.5 34.03 32.2199 33.7499 31.8749 33.7499Z" stroke="white" stroke-width="0.4" mask="url(#path-2-outside-1_2304_4846)"/>
<path d="M33.125 35H30.625C30.28 35 29.9999 35.28 29.9999 35.625C29.9999 35.97 30.28 36.25 30.625 36.25H33.125C33.47 36.25 33.75 35.97 33.75 35.625C33.7499 35.2799 33.47 35 33.125 35Z" stroke="white" stroke-width="0.4" mask="url(#path-2-outside-1_2304_4846)"/>
<path d="M33.7424 18.0225L33.0149 13.6562C32.6612 11.5375 30.8462 10 28.6987 10H21.3025C19.1537 10 17.34 11.5375 16.9862 13.6562L16.2587 18.0225C16.225 18.2212 16.29 18.4237 16.4325 18.5674C17.5312 19.665 19.6474 19.9275 22.4875 19.9837C22.8837 19.9975 23.1175 19.7162 23.125 19.3712C23.1325 19.0262 22.8575 18.74 22.5125 18.7337C20.495 18.6937 18.5175 18.5575 17.55 17.8775L18.2188 13.8613C18.4712 12.3475 19.7675 11.25 21.3025 11.25H28.6975C30.2324 11.25 31.5287 12.3476 31.7812 13.86L32.4499 17.8763C31.4824 18.5575 29.5049 18.6938 27.4874 18.7325C27.1424 18.74 26.8687 19.025 26.875 19.37C26.8812 19.7113 27.16 19.9825 27.5 19.9825C27.5037 19.9825 27.5075 19.9825 27.5125 19.9837C30.3524 19.9275 32.47 19.665 33.5675 18.5674C33.7112 18.4237 33.775 18.2212 33.7424 18.0225Z" stroke="white" stroke-width="0.4" mask="url(#path-2-outside-1_2304_4846)"/>
<path d="M25 13.75C22.9325 13.75 21.25 15.4325 21.25 17.5C21.25 19.5675 22.9325 21.25 25 21.25C27.0674 21.25 28.75 19.5675 28.75 17.5C28.75 15.4325 27.0674 13.75 25 13.75ZM25 20C23.6212 20 22.5 18.8788 22.5 17.5C22.5 16.1212 23.6212 15 25 15C26.3787 15 27.5 16.1212 27.5 17.5C27.5 18.8788 26.3787 20 25 20Z" stroke="white" stroke-width="0.4" mask="url(#path-2-outside-1_2304_4846)"/>
<path d="M25 18.75C25.6903 18.75 26.25 18.1903 26.25 17.5C26.25 16.8096 25.6903 16.25 25 16.25C24.3096 16.25 23.75 16.8096 23.75 17.5C23.75 18.1903 24.3096 18.75 25 18.75Z" stroke="white" stroke-width="0.4" mask="url(#path-2-outside-1_2304_4846)"/>
</svg>
