<svg width="50" height="50" viewBox="0 0 50 50" fill="none" xmlns="http://www.w3.org/2000/svg">
<rect width="50" height="50" rx="6" fill="#74B629"/>
<path d="M38.4583 39.082C38.3922 37.6278 37.7955 36.1938 36.8213 35.1479C35.8975 34.1562 34.5248 33.5001 32.9562 33.3007L29.3095 32.8372L29.0497 31.8423C30.3198 31.1189 31.371 30.0663 32.0809 28.8047C32.4621 28.5014 32.7571 28.0985 32.9243 27.6367H36.6693V25C36.6693 24.5409 36.6693 21.0411 36.6693 20.6055H36.6351C36.1835 14.7568 31.1898 10 25.0001 10C18.8085 10 13.8166 14.758 13.365 20.6055H13.3309C13.3309 21.3897 13.3309 26.8253 13.3309 27.6367H17.3835C18.0282 29.4166 19.3058 30.9055 20.9505 31.8423L20.6907 32.8372L17.046 33.3003C15.4767 33.4997 14.1036 34.1559 13.1795 35.148C12.2053 36.1938 11.6084 37.6276 11.542 39.0818L11.5 40H38.5L38.4583 39.082ZM34.874 25.8789H33.0787C33.0787 25.494 33.0787 22.8106 33.0787 22.3633H34.874C34.874 22.7672 34.874 25.5 34.874 25.8789ZM16.9214 25.8789H15.1261C15.1261 25.494 15.1261 22.8106 15.1261 22.3633H16.9214C16.9214 22.7672 16.9214 25.5 16.9214 25.8789ZM16.9708 20.6055H15.1669C15.6194 15.6526 19.8563 11.7578 25.0001 11.7578C30.1438 11.7578 34.3807 15.6526 34.8332 20.6055H33.0294C32.5844 16.6236 29.1535 13.5156 25.0001 13.5156C20.8466 13.5156 17.4157 16.6236 16.9708 20.6055ZM31.2203 20.6055H28.9624L26.7954 18.4836L24.6283 20.6055H18.7799C19.2132 17.5955 21.8372 15.2734 25.0001 15.2734C28.163 15.2734 30.787 17.5955 31.2203 20.6055ZM18.7166 25V22.3633H25.3719L26.7953 20.9695L28.2188 22.3633H31.2835V25C31.2835 25.9203 31.0756 26.7938 30.7041 27.5786C30.605 27.6156 30.498 27.6367 30.3858 27.6367H25.8977V29.3828H29.3927C28.2589 30.4695 26.7082 31.1523 25.0001 31.1523C21.5354 31.1523 18.7166 28.3924 18.7166 25ZM28.6921 34.5313C27.8646 35.7037 26.4949 36.4258 25.0001 36.4258C23.5053 36.4258 22.1355 35.7037 21.308 34.5313L22.1285 34.427L22.6164 32.5586C23.3702 32.787 24.1707 32.9102 25.0001 32.9102C25.8294 32.9102 26.63 32.787 27.3837 32.5586L27.8717 34.427L28.6921 34.5313ZM13.4741 38.2422C13.9325 36.4653 15.2372 35.3027 17.277 35.0434L19.3766 34.7767C20.4359 36.8577 22.6033 38.1836 25.0001 38.1836C27.3969 38.1836 29.5641 36.8577 30.6235 34.7768L32.7251 35.0439C34.7624 35.3028 36.0681 36.4639 36.5264 38.2422H13.4741Z" fill="white"/>
</svg>
