<svg width="44" height="44" viewBox="0 0 44 44" fill="none" xmlns="http://www.w3.org/2000/svg">
<rect width="44" height="44" rx="10" fill="#74B629"/>
<path d="M28.7224 22.9799C30.186 22.9799 31.3709 24.2152 31.3709 25.7399C31.3709 27.2647 30.1852 28.5 28.7224 28.5C27.2605 28.5 26.074 27.2647 26.074 25.7399C26.074 24.2152 27.2605 22.9799 28.7224 22.9799ZM28.7224 26.5738C29.1623 26.5738 29.5228 26.2 29.5228 25.7408C29.5228 25.2817 29.1623 24.9078 28.7224 24.9078C28.2834 24.9078 27.9237 25.2817 27.9237 25.7408C27.9237 26.2 28.2826 26.5738 28.7224 26.5738Z" fill="white"/>
<path d="M9.43748 23.4787L9.87075 19.8072C9.95592 19.1025 10.5471 18.5857 11.2293 18.6244L12.1785 18.6796L15.1255 15.9135C15.4099 15.6473 15.7762 15.5009 16.1582 15.5009L22.1456 15.5C23.4892 15.5 24.7924 15.9781 25.84 16.855L29.1805 19.6513L33.6729 20.8211C34.25 20.971 34.6552 21.512 34.6552 22.1314V23.4804C34.8454 23.4795 35 23.6398 35 23.8379V25.6219C35 25.8761 34.8024 26.0819 34.5585 26.0819H32.0225C32.0332 25.9674 32.0555 25.858 32.0555 25.7408C32.0555 23.8224 30.5639 22.2701 28.7233 22.2701C26.8827 22.2701 25.3918 23.8224 25.3918 25.7408C25.3918 25.8588 25.415 25.9682 25.4257 26.0819H18.4032C18.4131 25.9674 18.4354 25.858 18.4354 25.7408C18.4354 23.8224 16.9438 22.2701 15.104 22.2701C13.2626 22.2701 11.7734 23.8224 11.7734 25.7408C11.7734 25.8588 11.7949 25.9682 11.8064 26.0819H9.44078C9.19686 26.0819 9.00006 25.8761 9.00006 25.6219V23.9395C8.99593 23.6863 9.19355 23.4787 9.43748 23.4787ZM18.3238 18.9673L26.6768 19.4075L25.0776 18.068C24.2086 17.34 23.1287 16.9438 22.0133 16.9438H18.3238V18.9673ZM16.9363 18.8941V16.9446H16.3931C16.2045 16.9446 16.0235 17.017 15.8837 17.1488L14.1787 18.7476L16.9363 18.8941Z" fill="white"/>
<path d="M15.1023 22.9799C16.5659 22.9799 17.7508 24.2152 17.7508 25.7399C17.7508 27.2647 16.5651 28.5 15.1023 28.5C13.6396 28.5 12.4539 27.2647 12.4539 25.7399C12.4539 24.2152 13.6396 22.9799 15.1023 22.9799ZM15.1023 26.5738C15.543 26.5738 15.9019 26.2 15.9019 25.7408C15.9019 25.2817 15.543 24.9078 15.1023 24.9078C14.6633 24.9078 14.3027 25.2817 14.3027 25.7408C14.3027 26.2 14.6624 26.5738 15.1023 26.5738Z" fill="white"/>
</svg>
