<svg width="44" height="44" viewBox="0 0 44 44" fill="none" xmlns="http://www.w3.org/2000/svg">
<circle cx="22" cy="22" r="22" fill="#81C133" fill-opacity="0.2"/>
<rect x="5" y="5" width="34" height="34" rx="17" fill="#81C133"/>
<path d="M27.7222 25.2222C26.75 25.2222 25.8167 25.0667 24.9456 24.7789C24.8088 24.7353 24.6628 24.7297 24.5231 24.7626C24.3834 24.7954 24.2552 24.8656 24.1522 24.9656L22.4411 26.6767C20.2331 25.5537 18.4385 23.7591 17.3156 21.5511L19.0267 19.8322C19.1297 19.7345 19.2027 19.6094 19.2371 19.4716C19.2716 19.3339 19.266 19.1892 19.2211 19.0544C18.9261 18.1585 18.7764 17.2211 18.7778 16.2778C18.7778 15.85 18.4278 15.5 18 15.5H15.2778C14.85 15.5 14.5 15.85 14.5 16.2778C14.5 23.5811 20.4189 29.5 27.7222 29.5C28.15 29.5 28.5 29.15 28.5 28.7222V26C28.5 25.5722 28.15 25.2222 27.7222 25.2222ZM28.5 17.8333H26.1667V15.5H24.6111V17.8333H22.2778V19.3889H24.6111V21.7222H26.1667V19.3889H28.5V17.8333Z" fill="white"/>
</svg>
