<svg width="11" height="13" viewBox="0 0 11 13" fill="none" xmlns="http://www.w3.org/2000/svg">
<path d="M3.1912 3.1981C3.06877 3.32499 3 3.49706 3 3.67647C3 3.85589 3.06877 4.02795 3.1912 4.15484L6.42372 7.50408L3.1912 10.8533C3.07224 10.9809 3.00642 11.1519 3.00791 11.3293C3.0094 11.5067 3.07808 11.6764 3.19915 11.8018C3.32023 11.9273 3.48402 11.9984 3.65524 12C3.82647 12.0015 3.99143 11.9333 4.11459 11.8101L7.8088 7.98245C7.93123 7.85557 8 7.6835 8 7.50408C8 7.32467 7.93123 7.1526 7.8088 7.02572L4.11459 3.1981C3.99213 3.07126 3.82606 3 3.65289 3C3.47973 3 3.31366 3.07126 3.1912 3.1981Z" fill="#323B44"/>
</svg>
