<svg width="44" height="44" viewBox="0 0 44 44" fill="none" xmlns="http://www.w3.org/2000/svg">
<circle cx="22" cy="22" r="22" fill="#81C133" fill-opacity="0.2"/>
<rect x="5" y="5" width="34" height="34" rx="17" fill="#81C133"/>
<path d="M27.2895 14V16.1818H29.5V17.6364H27.2895V19.8182H25.8158V17.6364H23.6053V16.1818H25.8158V14H27.2895ZM21.3947 22.7273C22.2053 22.7273 22.8684 22.0727 22.8684 21.2727C22.8684 20.4727 22.2053 19.8182 21.3947 19.8182C20.5842 19.8182 19.9211 20.4727 19.9211 21.2727C19.9211 22.0727 20.5842 22.7273 21.3947 22.7273ZM22.8684 15.6364V18.3636H25.0789V20.5455H27.2305C27.2674 20.8291 27.2895 21.12 27.2895 21.4182C27.2895 23.8327 25.3221 26.6909 21.3947 30C17.4674 26.6909 15.5 23.8327 15.5 21.4182C15.5 17.7964 18.3 15.4545 21.3947 15.4545C21.8958 15.4545 22.3895 15.5127 22.8684 15.6364Z" fill="white"/>
</svg>
