<svg width="40" height="40" viewBox="0 0 40 40" fill="none" xmlns="http://www.w3.org/2000/svg">
<path d="M6.66667 27.5789C8.50762 27.5789 10 26.0709 10 24.2105C10 22.3502 8.50762 20.8421 6.66667 20.8421C4.82572 20.8421 3.33333 22.3502 3.33333 24.2105C3.33333 26.0709 4.82572 27.5789 6.66667 27.5789Z" fill="#74B629"/>
<path d="M2.03333 30.24C1.42952 30.5008 0.914873 30.9352 0.553364 31.4891C0.191855 32.0431 -0.00057281 32.6922 1.28082e-06 33.3558V36H7.5V33.2884C7.5 31.8905 7.88334 30.5768 8.55 29.4316C7.93333 29.3305 7.31667 29.2632 6.66667 29.2632C5.01667 29.2632 3.45 29.6168 2.03333 30.24Z" fill="#74B629"/>
<path d="M33.3333 27.5789C35.1743 27.5789 36.6667 26.0709 36.6667 24.2105C36.6667 22.3502 35.1743 20.8421 33.3333 20.8421C31.4924 20.8421 30 22.3502 30 24.2105C30 26.0709 31.4924 27.5789 33.3333 27.5789Z" fill="#74B629"/>
<path d="M37.9667 30.24C36.5052 29.5956 34.9278 29.263 33.3333 29.2632C32.6833 29.2632 32.0667 29.3305 31.45 29.4316C32.1167 30.5768 32.5 31.8905 32.5 33.2884V36H40V33.3558C40 31.9916 39.2 30.7789 37.9667 30.24ZM27.0667 28.6737C25.1167 27.7979 22.7167 27.1579 20 27.1579C17.2833 27.1579 14.8833 27.8147 12.9333 28.6737C12.0551 29.0738 11.3105 29.7227 10.7899 30.5417C10.2692 31.3608 9.99485 32.3149 10 33.2884V36H30V33.2884C30 31.3011 28.8667 29.4821 27.0667 28.6737ZM15 20.8421C15 23.6379 17.2333 25.8947 20 25.8947C22.7667 25.8947 25 23.6379 25 20.8421C25 18.0463 22.7667 15.7895 20 15.7895C17.2333 15.7895 15 18.0463 15 20.8421Z" fill="#74B629"/>
<path d="M4.13333 18.9221C3.61667 17.6421 3.33333 16.3958 3.33333 15.1158C3.33333 10.7705 6.7 7.36842 11 7.36842C15.4667 7.36842 17.3667 10.2989 20 13.4147C22.6167 10.3326 24.5 7.36842 29 7.36842C33.3 7.36842 36.6667 10.7705 36.6667 15.1158C36.6667 16.3958 36.3833 17.6421 35.8667 18.9221C36.95 19.4442 37.8333 20.3032 38.4167 21.3474C39.4167 19.3263 40 17.2716 40 15.1158C40 8.88421 35.1667 4 29 4C25.5167 4 22.1833 5.63368 20 8.22737C17.8167 5.63368 14.4833 4 11 4C4.83333 4 1.28082e-06 8.88421 1.28082e-06 15.1158C1.28082e-06 17.2716 0.583335 19.3263 1.6 21.3474C2.18333 20.3032 3.06667 19.4442 4.13333 18.9221Z" fill="#74B629"/>
</svg>
