<svg width="55" height="55" viewBox="0 0 55 55" fill="none" xmlns="http://www.w3.org/2000/svg">
<path d="M54.7243 53.3979L49.5172 48.1908C49.9063 47.3957 49.9204 46.4494 49.5078 45.6253L47.524 41.6596C47.6236 40.8881 47.3878 40.0808 46.7967 39.4897L26.0406 18.7337L28.4868 16.2876C29.5665 16.0714 30.5599 15.5433 31.3567 14.7464C33.5548 12.5483 33.5548 8.97075 31.3567 6.7727C30.2911 5.70798 28.8749 5.12158 27.3694 5.12158C25.864 5.12158 24.4478 5.70798 23.3831 6.7727C22.3174 7.83742 21.731 9.25361 21.731 10.7591C21.731 10.8624 21.7404 10.9649 21.746 11.0673L20.0601 12.7532L17.895 10.5871C17.0605 9.75449 15.8003 9.62481 14.8211 10.1717L12.0695 7.42018C12.1626 6.99354 12.2143 6.55562 12.2143 6.1083C12.2143 4.47692 11.5781 2.94232 10.425 1.78926C9.271 0.635264 7.73734 0 6.10596 0C4.47457 0 2.93997 0.635264 1.78597 1.78926C-0.595325 4.17056 -0.595325 8.04605 1.78597 10.4273C2.93997 11.5813 4.47363 12.2166 6.10596 12.2166C6.55327 12.2166 6.99119 12.1649 7.41783 12.0719L10.1694 14.8234C9.62246 15.8045 9.75308 17.0647 10.5857 17.8973L12.7509 20.0625L11.065 21.7484C10.9625 21.7427 10.861 21.7334 10.7577 21.7334C9.25126 21.7334 7.83602 22.3197 6.77129 23.3845C5.70563 24.4492 5.11923 25.8654 5.11923 27.3708C5.11923 28.8772 5.70563 30.2925 6.77129 31.3582C7.83602 32.4229 9.2522 33.0093 10.7577 33.0093C12.2631 33.0093 13.6793 32.4229 14.745 31.3582C15.556 30.5462 16.0634 29.5463 16.2758 28.4976L18.7314 26.0421L39.4874 46.799C39.977 47.2896 40.6301 47.5602 41.3236 47.5602C41.4364 47.5602 41.5463 47.5414 41.6572 47.5273L45.6239 49.5102C46.0355 49.716 46.479 49.8165 46.9188 49.8165C47.3568 49.8165 47.7853 49.7056 48.1818 49.512L53.3965 54.7257C53.5797 54.909 53.8203 55.0011 54.0608 55.0011C54.3014 55.0011 54.542 54.909 54.7252 54.7257C55.0917 54.3602 55.0917 53.7653 54.7243 53.3979ZM24.7109 8.10149C25.4214 7.39199 26.3649 7.00106 27.3685 7.00106C28.3721 7.00106 29.3166 7.39199 30.027 8.10149C31.4921 9.56748 31.4921 11.9516 30.027 13.4176C29.3241 14.1205 28.3627 14.472 27.3986 14.4795C27.3835 14.4795 27.3685 14.4804 27.3544 14.4814C27.1223 14.4804 26.8911 14.4588 26.6628 14.4184C26.6468 14.4156 26.6317 14.4118 26.6167 14.409C26.3977 14.3667 26.1835 14.3056 25.9749 14.2267C25.9222 14.206 25.8724 14.1788 25.8207 14.1553C25.6507 14.082 25.4824 14.0012 25.3246 13.9025C25.1075 13.7615 24.8989 13.6065 24.7119 13.4185C24.7072 13.4138 24.7043 13.4082 24.6996 13.4044C24.5474 13.2503 24.4149 13.084 24.2937 12.9101C24.2269 12.8133 24.1706 12.7109 24.1132 12.6085C24.07 12.5324 24.0277 12.4572 23.9901 12.3782C23.9215 12.2307 23.8605 12.0785 23.8106 11.9206C23.8022 11.8962 23.7956 11.8708 23.7881 11.8464C23.7345 11.6631 23.6913 11.4752 23.664 11.2816L23.6556 11.2233C23.6368 11.0701 23.6105 10.9179 23.6105 10.761C23.6105 9.75543 24.0014 8.81194 24.7109 8.10149ZM3.11477 3.11805C3.91448 2.31928 4.97639 1.87948 6.10596 1.87948C7.23552 1.87948 8.29743 2.31928 9.09527 3.11805C9.89498 3.91683 10.3338 4.97874 10.3338 6.1083C10.3338 6.59227 10.238 7.05744 10.0829 7.501C10.0021 7.73405 9.8978 7.95395 9.78034 8.16539C9.74275 8.23212 9.71361 8.30166 9.67227 8.3665C9.50781 8.62775 9.31892 8.8749 9.09527 9.09762C8.87161 9.32033 8.62446 9.50922 8.36227 9.67462C8.29743 9.71596 8.22695 9.7451 8.16117 9.78269C7.9516 9.89921 7.73452 10.0026 7.50429 10.0834C7.05885 10.2403 6.5918 10.3371 6.10596 10.3371C4.97639 10.3371 3.91448 9.89733 3.11477 9.09856C1.46646 7.44931 1.46646 4.76636 3.11477 3.11805ZM9.36779 11.2675C9.50593 11.1801 9.63937 11.0852 9.77094 10.9856C9.82262 10.947 9.87619 10.9104 9.92694 10.87C10.0895 10.7393 10.2464 10.6003 10.3968 10.4518C10.4053 10.4433 10.4156 10.4358 10.4241 10.4273C10.5829 10.2685 10.7295 10.1013 10.8676 9.92929C10.9071 9.87948 10.9428 9.82779 10.9804 9.77705C11.0809 9.64454 11.1768 9.50922 11.2651 9.3692C11.2773 9.35041 11.2914 9.33349 11.3027 9.3147L13.4134 11.4244L11.4192 13.4185L9.31141 11.3079C9.33114 11.2957 9.34806 11.2806 9.36779 11.2675ZM11.9135 16.5685C11.642 16.297 11.642 15.8543 11.9135 15.5828L15.5813 11.9159C15.7167 11.7806 15.8943 11.7139 16.0728 11.7139C16.2504 11.7139 16.4299 11.7815 16.5653 11.9168L18.7304 14.082L16.4046 16.4078L14.0787 18.7337L11.9135 16.5685ZM14.0796 21.3913L14.6811 20.7889L22.2836 13.1864C22.417 13.4655 22.5721 13.7333 22.7506 13.989C22.7647 14.0096 22.7807 14.0284 22.7948 14.0491C22.9715 14.2934 23.1641 14.5293 23.3812 14.7464C23.3859 14.7511 23.3915 14.7548 23.3962 14.7595C23.5532 14.9155 23.7195 15.0584 23.8915 15.1928C23.9403 15.2313 23.9901 15.2661 24.0399 15.3027C24.1837 15.4089 24.3313 15.5066 24.4835 15.5978C24.5239 15.6222 24.5643 15.6476 24.6057 15.6711C25.0173 15.9032 25.4552 16.0808 25.9128 16.202L16.1997 25.9161C16.1471 25.7141 16.0775 25.5167 16.0024 25.3222C15.9911 25.2931 15.9854 25.264 15.9732 25.2358C15.8511 24.9341 15.6932 24.6475 15.5184 24.3693C15.477 24.3035 15.4338 24.2406 15.3896 24.1757C15.1979 23.8976 14.9893 23.6297 14.744 23.3854C14.526 23.1674 14.2901 22.9757 14.0458 22.7981C14.0261 22.784 14.0073 22.768 13.9866 22.7539C13.731 22.5744 13.4632 22.4194 13.1841 22.2869L14.0796 21.3913ZM8.09914 30.0303C7.3887 29.3199 6.99777 28.3764 6.99777 27.3718C6.99777 26.3681 7.3887 25.4246 8.09914 24.7142C8.80959 24.0047 9.75308 23.6138 10.7567 23.6138C10.9137 23.6138 11.065 23.6401 11.2181 23.6589L11.2764 23.6673C11.469 23.6936 11.6561 23.7369 11.8374 23.7904C11.8647 23.7989 11.8919 23.8064 11.9182 23.8149C12.0742 23.8637 12.2246 23.9248 12.3703 23.9925C12.4501 24.031 12.5272 24.0733 12.6043 24.1175C12.7057 24.1739 12.8082 24.2302 12.904 24.296C13.0826 24.421 13.2564 24.5573 13.4134 24.7151C13.6117 24.9134 13.7789 25.1324 13.9246 25.3626C13.965 25.4265 13.9932 25.4961 14.0298 25.5618C14.1266 25.7385 14.215 25.918 14.2817 26.1069C14.3061 26.1755 14.323 26.245 14.3428 26.3146C14.4029 26.5232 14.449 26.7365 14.4715 26.9555C14.4762 27.0015 14.4809 27.0466 14.4847 27.0927C14.5025 27.3643 14.4988 27.6396 14.4584 27.9187L14.4236 28.1555C14.2779 28.8425 13.9453 29.4975 13.4124 30.0303C11.9944 31.4493 9.51909 31.4493 8.09914 30.0303ZM20.0592 24.7142L24.7109 20.0625L32.1095 27.4611L30.8803 28.6902C30.5129 29.0577 30.5129 29.6516 30.8803 30.019C31.0636 30.2023 31.3041 30.2944 31.5447 30.2944C31.7853 30.2944 32.0258 30.2023 32.2091 30.019L33.4383 28.7899L34.9287 30.2803L32.7598 32.4492C32.3923 32.8166 32.3923 33.4105 32.7598 33.778C32.943 33.9612 33.1836 34.0533 33.4242 34.0533C33.6647 34.0533 33.9053 33.9612 34.0886 33.778L36.2575 31.6091L37.7479 33.0995L36.5187 34.3287C36.1513 34.6961 36.1513 35.29 36.5187 35.6575C36.702 35.8407 36.9426 35.9328 37.1831 35.9328C37.4237 35.9328 37.6643 35.8407 37.8475 35.6575L39.0767 34.4283L40.5671 35.9187L38.3982 38.0876C38.0308 38.4551 38.0308 39.049 38.3982 39.4164C38.5815 39.5997 38.822 39.6918 39.0626 39.6918C39.3032 39.6918 39.5438 39.5997 39.727 39.4164L41.8959 37.2475L45.4679 40.8195C45.747 41.0986 45.747 41.5506 45.4707 41.8306L41.8292 45.4721C41.5576 45.7427 41.0868 45.7418 40.8162 45.4712L20.0592 24.7142ZM46.464 47.829L43.5752 46.3846L44.9792 44.9806L46.3832 43.5766L47.8276 46.4645C48.023 46.8563 47.9469 47.3281 47.6377 47.6382C47.3267 47.9483 46.8559 48.0244 46.464 47.829Z" fill="#74B629"/>
</svg>
