<svg width="30" height="30" viewBox="0 0 30 30" fill="none" xmlns="http://www.w3.org/2000/svg">
<g clip-path="url(#clip0_2418_3423)">
<path d="M25.6066 4.39336C22.7735 1.56029 19.0066 0 15 0C10.9934 0 7.22654 1.56029 4.39336 4.39336C1.56029 7.22654 0 10.9934 0 15C0 19.0066 1.56029 22.7735 4.39336 25.6066C7.22654 28.4397 10.9934 30 15 30C19.0066 30 22.7735 28.4397 25.6066 25.6066C28.4397 22.7735 30 19.0066 30 15C30 10.9934 28.4397 7.22654 25.6066 4.39336ZM15 28.2422C7.69822 28.2422 1.75781 22.3018 1.75781 15C1.75781 7.69822 7.69822 1.75781 15 1.75781C22.3018 1.75781 28.2422 7.69822 28.2422 15C28.2422 22.3018 22.3018 28.2422 15 28.2422Z" fill="#74B629"/>
<path d="M22.122 8.73199L23.2804 7.40988C21.9459 6.24059 19.1816 4.70584 17.0363 5.27004L17.4834 6.97008C18.7312 6.64172 20.8631 7.62896 22.122 8.73199Z" fill="#74B629"/>
<path d="M12.5166 6.97008L12.9637 5.27004C10.8188 4.70584 8.05418 6.24059 6.71965 7.40988L7.87805 8.73199C9.13693 7.62902 11.2683 6.6416 12.5166 6.97008Z" fill="#74B629"/>
<path d="M12.7341 11.2325H10.9762C10.9762 12.1668 10.2162 12.9268 9.28201 12.9268C8.34785 12.9268 7.58777 12.1668 7.58777 11.2325H5.82996C5.82996 13.136 7.37853 14.6846 9.28201 14.6846C11.1855 14.6846 12.7341 13.136 12.7341 11.2325Z" fill="#74B629"/>
<path d="M20.718 12.9268C19.7838 12.9268 19.0238 12.1668 19.0238 11.2325H17.2659C17.2659 13.136 18.8145 14.6846 20.718 14.6846C22.6215 14.6846 24.17 13.136 24.17 11.2325H22.4122C22.4122 12.1668 21.6521 12.9268 20.718 12.9268Z" fill="#74B629"/>
<path d="M15 20.7059C12.9299 20.7059 11.0763 19.4718 10.2775 17.5619L8.65576 18.2401C9.72885 20.8058 12.2191 22.4637 15 22.4637C17.7688 22.4637 20.2548 20.8158 21.3335 18.2656L19.7145 17.5808C18.9115 19.4792 17.061 20.7059 15 20.7059Z" fill="#74B629"/>
</g>
<defs>
<clipPath id="clip0_2418_3423">
<rect width="30" height="30" fill="white"/>
</clipPath>
</defs>
</svg>
