<svg width="45" height="45" viewBox="0 0 45 45" fill="none" xmlns="http://www.w3.org/2000/svg">
<path d="M42.2308 22.9197L42.2308 5.96925L34.833 1.73077L34.833 18.6813L42.2308 22.9197Z" fill="#81C133"/>
<path d="M28.2469 37.3347L29.8977 35.6317L42.2308 22.9197L34.833 18.6813L22.5 31.3932L22.4931 31.4036L22.4896 31.4001L22.5 31.3932L10.167 18.6813L2.76924 22.9197L15.0953 35.6283L15.0849 35.6317L16.7358 37.3347L22.4931 43.2692L28.2469 37.3347Z" fill="#63A61C"/>
<path d="M2.76924 22.9197L2.76924 5.96925L10.167 1.73077L10.167 18.6813L2.76924 22.9197Z" fill="#81C133"/>
<path d="M28.2469 20.3842L29.8977 18.6813L42.2308 5.96925L34.833 1.73077L22.5 14.4428L22.4931 14.4496L22.4896 14.4496L22.5 14.4428L10.167 1.73077L2.76924 5.96925L15.0953 18.6778L15.0849 18.6813L16.7358 20.3842L22.4931 26.3153L28.2469 20.3842Z" fill="#81C133"/>
</svg>
