<svg width="50" height="50" viewBox="0 0 50 50" fill="none" xmlns="http://www.w3.org/2000/svg">
<rect width="50" height="50" rx="6" fill="#74B629"/>
<path d="M39.9647 18.7035C39.9647 18.6675 39.9295 18.5955 39.8942 18.5596C39.8942 18.5236 39.8942 18.5236 39.8589 18.4876C39.8589 18.4516 39.8237 18.4516 39.8237 18.4516C39.7884 18.4156 39.7532 18.3797 39.7179 18.3437C39.6826 18.3077 39.6474 18.2717 39.6121 18.2717C39.5768 18.2357 39.5416 18.2357 39.4711 18.1998C39.4358 18.1998 39.3653 18.1638 39.33 18.1638C39.2947 18.1638 39.2947 18.1638 39.2595 18.1638C39.2242 18.1638 39.2242 18.1638 39.189 18.1638C39.1537 18.1638 39.0832 18.1638 39.0479 18.1998C39.0126 18.1998 38.9421 18.2357 38.9068 18.2717C38.8716 18.2717 38.8716 18.2717 38.8363 18.3077L37.0379 19.531V11.2916C37.0379 10.8598 36.6853 10.5 36.2621 10.5H13.7291C13.3059 10.5 12.9533 10.8598 12.9533 11.2916V19.495L11.1549 18.2717C11.1196 18.2717 11.1196 18.2717 11.0843 18.2357C11.0491 18.1998 10.9785 18.1998 10.9433 18.1638C10.908 18.1638 10.8728 18.1638 10.8375 18.1638C10.8022 18.1638 10.8022 18.1638 10.767 18.1638C10.7317 18.1638 10.7317 18.1638 10.6964 18.1638C10.6612 18.1638 10.5907 18.1638 10.5554 18.1998C10.5201 18.1998 10.4496 18.2357 10.4143 18.2717C10.3791 18.3077 10.3438 18.3077 10.3086 18.3437C10.2733 18.3797 10.238 18.4156 10.2028 18.4516C10.2028 18.4876 10.1675 18.4876 10.1675 18.4876C10.1675 18.5236 10.1675 18.5236 10.1322 18.5596C10.097 18.5955 10.097 18.6675 10.0617 18.7035C10.0617 18.7395 10.0264 18.8114 10.0264 18.8474C10.0264 18.8834 10.0264 18.8834 10.0264 18.9194V38.7084C10.0264 38.7444 10.0264 38.7444 10.0264 38.7804C9.99118 38.8524 9.99118 38.8883 10.0264 38.9243C10.0264 38.9603 10.0617 39.0323 10.097 39.0682C10.097 39.1042 10.097 39.1042 10.1322 39.1402C10.1675 39.1762 10.1675 39.2122 10.2028 39.2122L10.238 39.2481C10.3086 39.3201 10.3791 39.3561 10.4496 39.3921C10.4496 39.3921 10.4849 39.3921 10.4849 39.428C10.5554 39.464 10.6612 39.5 10.767 39.5H39.2242C39.33 39.5 39.4005 39.464 39.5063 39.428C39.5063 39.428 39.5416 39.428 39.5416 39.3921C39.6121 39.3561 39.6826 39.3201 39.7532 39.2481L39.7884 39.2122C39.8237 39.1762 39.8237 39.1762 39.8589 39.1402C39.8589 39.1042 39.8589 39.1042 39.8942 39.0682C39.9295 39.0323 39.9295 38.9603 39.9647 38.9243C39.9647 38.8883 40 38.8164 40 38.7804C40 38.7444 40 38.7444 40 38.7084V18.9194C40 18.8834 40 18.8834 40 18.8474C40 18.8114 40 18.7395 39.9647 18.7035ZM14.5048 12.0831H35.4511V20.5744L24.978 27.8784L14.5048 20.5744V12.0831ZM11.5075 20.3945L23.6027 28.8139L11.5075 37.2332V20.3945ZM13.2354 37.9169L24.978 29.7494L36.7205 37.9169H13.2354ZM38.4484 37.2332L26.3532 28.8139L38.4484 20.3945V37.2332Z" fill="white"/>
<path d="M18.2427 16.6526H31.5016C31.9248 16.6526 32.2774 16.2928 32.2774 15.861C32.2774 15.4293 31.9248 15.0695 31.5016 15.0695H18.2427C17.8196 15.0695 17.4669 15.4293 17.4669 15.861C17.4669 16.2928 17.8196 16.6526 18.2427 16.6526Z" fill="white"/>
<path d="M32.2774 19.3871C32.2774 18.9553 31.9248 18.5955 31.5016 18.5955H18.2427C17.8196 18.5955 17.4669 18.9553 17.4669 19.3871C17.4669 19.8189 17.8196 20.1787 18.2427 20.1787H31.5016C31.9248 20.1787 32.2774 19.8189 32.2774 19.3871Z" fill="white"/>
</svg>
