<svg width="24" height="24" viewBox="0 0 24 24" fill="none" xmlns="http://www.w3.org/2000/svg">
<path d="M21 5.00614C20.9148 4.99795 20.8289 4.99795 20.7438 5.00614H3.24375C3.13159 5.00775 3.02017 5.02344 2.9125 5.05279L11.9438 13.4433L21 5.00614Z" fill="#74B629"/>
<path d="M21.925 5.81662L12.825 14.2712C12.5908 14.4884 12.274 14.6104 11.9438 14.6104C11.6135 14.6104 11.2967 14.4884 11.0625 14.2712L2.04375 5.88076C2.01602 5.97582 2.00132 6.07378 2 6.1723V17.8338C2 18.1431 2.1317 18.4397 2.36612 18.6584C2.60054 18.8771 2.91848 19 3.25 19H20.75C21.0815 19 21.3995 18.8771 21.6339 18.6584C21.8683 18.4397 22 18.1431 22 17.8338V6.1723C21.995 6.05082 21.9697 5.93081 21.925 5.81662ZM4.10625 17.8338H3.2375V17L7.78125 12.7961L8.6625 13.6182L4.10625 17.8338ZM20.7375 17.8338H19.8625L15.3062 13.6182L16.1875 12.7961L20.7312 17L20.7375 17.8338Z" fill="#74B629"/>
</svg>
