<svg width="55" height="55" viewBox="0 0 55 55" fill="none" xmlns="http://www.w3.org/2000/svg">
<path d="M24.8387 19.5161H30.1613V15.9677H33.7097V10.6452H30.1613V7.09677H24.8387V10.6452H21.2903V15.9677H24.8387V19.5161ZM23.0645 14.1935V12.4194H26.6129V8.87097H28.3871V12.4194H31.9355V14.1935H28.3871V17.7419H26.6129V14.1935H23.0645Z" fill="#74B629"/>
<path d="M47.9032 40.8064C45.2835 40.8064 42.9956 42.2372 41.7663 44.3548H39.9194C38.4523 44.3548 37.2581 45.549 37.2581 47.0161H2.66129C2.17269 47.0161 1.77419 46.6185 1.77419 46.129V44.3548C1.77419 43.8654 2.17269 43.4677 2.66129 43.4677H25.7258C27.1929 43.4677 28.3871 42.2735 28.3871 40.8064V38.1452C29.3656 38.1452 30.1613 37.3495 30.1613 36.371V34.5968H31.9355C32.914 34.5968 33.7097 33.8011 33.7097 32.8226V32.389L45.6322 23.7779C48.1648 21.9487 49.6774 18.9911 49.6774 15.8677V15.0806C49.6774 12.1816 48.352 9.41761 46.129 7.57497V7.09677C46.129 5.62969 44.9348 4.43548 43.4677 4.43548H41.6537C40.2841 1.80451 37.5366 0 34.3707 0H34.0805C31.8874 0 29.826 0.853311 28.2762 2.404L27.5 3.18107L26.7238 2.404C25.1731 0.853311 23.1117 0 20.9187 0H20.6285C17.4626 0 14.7151 1.80451 13.3454 4.43548H11.5323C10.0652 4.43548 8.87097 5.62969 8.87097 7.09677V7.57497C6.64803 9.41761 5.32258 12.1816 5.32258 15.0806V15.8677C5.32258 18.992 6.83515 21.9496 9.36779 23.7779L21.2903 32.389V32.8226C21.2903 33.8011 22.086 34.5968 23.0645 34.5968H24.8387V36.371C24.8387 37.3495 25.6344 38.1452 26.6129 38.1452V40.8064C26.6129 41.2959 26.2144 41.6935 25.7258 41.6935H2.66129C1.1942 41.6935 0 42.8877 0 44.3548V46.129C0 47.5961 1.1942 48.7903 2.66129 48.7903H37.2581C37.2581 50.2574 38.4523 51.4516 39.9194 51.4516H41.7663C42.9956 53.5693 45.2826 55 47.9032 55C51.8163 55 55 51.8163 55 47.9032C55 43.9901 51.8163 40.8064 47.9032 40.8064ZM43.4677 6.20968C43.9563 6.20968 44.3548 6.60818 44.3548 7.09677V8.87097C44.3548 9.35956 43.9563 9.75806 43.4677 9.75806H42.4256C42.5222 9.25171 42.5806 8.73452 42.5806 8.20911C42.5806 7.5191 42.4858 6.85118 42.3242 6.20968H43.4677ZM20.6285 1.77419H20.9187C22.6379 1.77419 24.2531 2.44298 25.4685 3.65927L27.5 5.68989L29.5315 3.65841C30.7469 2.44298 32.3621 1.77419 34.0813 1.77419H34.3715C37.9199 1.77419 40.8064 4.66072 40.8064 8.20911C40.8064 10.0652 40.0056 11.8303 38.6082 13.0518L27.5 22.7726L16.3918 13.0526C14.9944 11.8303 14.1935 10.066 14.1935 8.20911C14.1935 4.66072 17.0801 1.77419 20.6285 1.77419ZM10.6452 7.09677C10.6452 6.60818 11.0437 6.20968 11.5323 6.20968H12.6758C12.5142 6.85118 12.4194 7.5191 12.4194 8.20911C12.4194 8.73366 12.4778 9.25084 12.5744 9.75806H11.5323C11.0437 9.75806 10.6452 9.35956 10.6452 8.87097V7.09677ZM21.4519 30.3172L10.4056 22.3399C8.33429 20.8433 7.09677 18.4242 7.09677 15.8677V15.0806C7.09677 13.1484 7.81624 11.2893 9.06242 9.84946C9.45399 10.8331 10.4108 11.5323 11.5323 11.5323H13.1254C13.6045 12.6138 14.3122 13.591 15.2227 14.388L27.5 25.1307L39.7773 14.388C40.6878 13.5919 41.3955 12.6138 41.8746 11.5323H43.4677C44.5892 11.5323 45.546 10.8331 45.9376 9.84946C47.1838 11.2893 47.9032 13.1484 47.9032 15.0806V15.8677C47.9032 18.4242 46.6657 20.8433 44.5944 22.3399L33.5481 30.3172C33.2687 29.7034 32.6532 29.2742 31.9355 29.2742H23.0645C22.3468 29.2742 21.7313 29.7034 21.4519 30.3172ZM23.0645 32.8226V31.0484H31.9355V32.8226H28.3871V36.371H26.6129V32.8226H23.0645ZM39.9194 49.6774C39.4308 49.6774 39.0323 49.2798 39.0323 48.7903V47.0161C39.0323 46.5267 39.4308 46.129 39.9194 46.129H41.0399C40.8926 46.6978 40.8064 47.2894 40.8064 47.9032C40.8064 48.517 40.8926 49.1087 41.0399 49.6774H39.9194ZM47.9032 53.2258C44.9678 53.2258 42.5806 50.8387 42.5806 47.9032C42.5806 44.9678 44.9678 42.5806 47.9032 42.5806C50.8387 42.5806 53.2258 44.9678 53.2258 47.9032C53.2258 50.8387 50.8387 53.2258 47.9032 53.2258Z" fill="#74B629"/>
<path d="M47.9032 44.3548C45.9462 44.3548 44.3548 45.9462 44.3548 47.9032C44.3548 49.8602 45.9462 51.4516 47.9032 51.4516C49.8602 51.4516 51.4516 49.8602 51.4516 47.9032C51.4516 45.9462 49.8602 44.3548 47.9032 44.3548ZM47.9032 49.6774C46.9247 49.6774 46.129 48.8817 46.129 47.9032C46.129 46.9247 46.9247 46.129 47.9032 46.129C48.8817 46.129 49.6774 46.9247 49.6774 47.9032C49.6774 48.8817 48.8817 49.6774 47.9032 49.6774Z" fill="#74B629"/>
</svg>
