<svg width="55" height="55" viewBox="0 0 55 55" fill="none" xmlns="http://www.w3.org/2000/svg">
<path d="M39.4167 11V6.41667C39.4125 2.87467 36.542 0.004125 33 0H22C18.458 0.004125 15.5875 2.87467 15.5833 6.41667V11C6.98088 11.0092 0.00916667 17.9809 0 26.5833V54.0833C0 54.5898 0.410208 55 0.916667 55H54.0833C54.5898 55 55 54.5898 55 54.0833V26.5833C54.9908 17.9809 48.0191 11.0092 39.4167 11ZM17.4167 6.41667C17.4199 3.88667 19.47 1.83654 22 1.83333H33C35.53 1.83654 37.5801 3.88667 37.5833 6.41667V11H36.6667V7.33333C36.6635 4.80333 34.6133 2.75321 32.0833 2.75H22.9167C20.3867 2.75321 18.3365 4.80333 18.3333 7.33333V11H17.4167V6.41667ZM20.1667 11V7.33333C20.1667 5.81487 21.3982 4.58333 22.9167 4.58333H32.0833C33.6018 4.58333 34.8333 5.81487 34.8333 7.33333V11H20.1667ZM53.1667 53.1667H1.83333V26.5833C1.84204 18.9929 7.99287 12.842 15.5833 12.8333H39.4167C47.0071 12.842 53.158 18.9929 53.1667 26.5833V53.1667Z" fill="#74B629"/>
<path d="M34.8333 33H30.25V28.4167C30.25 27.9102 29.8398 27.5 29.3333 27.5H25.6667C25.1602 27.5 24.75 27.9102 24.75 28.4167V33H20.1667C19.6602 33 19.25 33.4102 19.25 33.9167V37.5833C19.25 38.0898 19.6602 38.5 20.1667 38.5H24.75V43.0833C24.75 43.5898 25.1602 44 25.6667 44H29.3333C29.8398 44 30.25 43.5898 30.25 43.0833V38.5H34.8333C35.3398 38.5 35.75 38.0898 35.75 37.5833V33.9167C35.75 33.4102 35.3398 33 34.8333 33ZM33.9167 36.6667H29.3333C28.8269 36.6667 28.4167 37.0769 28.4167 37.5833V42.1667H26.5833V37.5833C26.5833 37.0769 26.1731 36.6667 25.6667 36.6667H21.0833V34.8333H25.6667C26.1731 34.8333 26.5833 34.4231 26.5833 33.9167V29.3333H28.4167V33.9167C28.4167 34.4231 28.8269 34.8333 29.3333 34.8333H33.9167V36.6667Z" fill="#74B629"/>
<path d="M27.5 22C19.9059 22 13.75 28.1559 13.75 35.75C13.75 43.3441 19.9059 49.5 27.5 49.5C35.0941 49.5 41.25 43.3441 41.25 35.75C41.2413 28.1595 35.0905 22.0087 27.5 22ZM27.5 47.6667C20.9186 47.6667 15.5833 42.3314 15.5833 35.75C15.5833 29.1686 20.9186 23.8333 27.5 23.8333C34.0814 23.8333 39.4167 29.1686 39.4167 35.75C39.4093 42.3282 34.0782 47.6593 27.5 47.6667Z" fill="#74B629"/>
</svg>
