<svg width="50" height="51" viewBox="0 0 50 51" fill="none" xmlns="http://www.w3.org/2000/svg">
<rect y="0.5" width="50" height="50" rx="10" fill="#74B629" fill-opacity="0.9"/>
<path d="M20.4589 15.4622C20.1651 15.7583 20 16.1598 20 16.5784C20 16.9971 20.1651 17.3986 20.4589 17.6946L28.2169 25.5095L20.4589 33.3244C20.1734 33.6222 20.0154 34.021 20.019 34.4349C20.0226 34.8489 20.1874 35.2449 20.478 35.5376C20.7686 35.8303 21.1617 35.9963 21.5726 35.9999C21.9835 36.0035 22.3794 35.8444 22.675 35.5568L31.5411 26.6257C31.8349 26.3297 32 25.9282 32 25.5095C32 25.0909 31.8349 24.6894 31.5411 24.3933L22.675 15.4622C22.3811 15.1663 21.9825 15 21.5669 15C21.1514 15 20.7528 15.1663 20.4589 15.4622Z" fill="white"/>
</svg>
