<svg width="50" height="50" viewBox="0 0 50 50" fill="none" xmlns="http://www.w3.org/2000/svg">
<rect width="50" height="50" rx="10" fill="white" fill-opacity="0.9"/>
<path d="M20.4589 14.9622C20.1651 15.2583 20 15.6598 20 16.0784C20 16.4971 20.1651 16.8986 20.4589 17.1946L28.2169 25.0095L20.4589 32.8244C20.1734 33.1222 20.0154 33.521 20.019 33.9349C20.0226 34.3489 20.1874 34.7449 20.478 35.0376C20.7686 35.3303 21.1617 35.4963 21.5726 35.4999C21.9835 35.5035 22.3794 35.3444 22.675 35.0568L31.5411 26.1257C31.8349 25.8297 32 25.4282 32 25.0095C32 24.5909 31.8349 24.1894 31.5411 23.8933L22.675 14.9622C22.3811 14.6663 21.9825 14.5 21.5669 14.5C21.1514 14.5 20.7528 14.6663 20.4589 14.9622Z" fill="#74B629"/>
</svg>
