<svg width="18" height="18" viewBox="0 0 18 18" fill="none" xmlns="http://www.w3.org/2000/svg">
<path d="M15.9078 3.81707H13.8148V2.44132C13.8143 1.92644 13.6076 1.43279 13.24 1.06879C12.8723 0.704795 12.3739 0.50022 11.854 0.5H6.14595C5.62629 0.500439 5.12804 0.705111 4.76058 1.06908C4.39312 1.43306 4.18649 1.92658 4.18605 2.44132V3.81707H2.09302C1.53792 3.81707 1.00555 4.0355 0.613032 4.42429C0.220514 4.81309 0 5.3404 0 5.89024V15.4268C0 15.9767 0.220514 16.504 0.613032 16.8928C1.00555 17.2816 1.53792 17.5 2.09302 17.5H15.907C16.4621 17.5 16.9944 17.2816 17.387 16.8928C17.7795 16.504 18 15.9767 18 15.4268V5.88941C17.9998 5.33986 17.7793 4.81288 17.387 4.42429C16.9947 4.0357 16.4626 3.81729 15.9078 3.81707ZM5.44186 2.44132C5.44208 2.25642 5.51633 2.07916 5.64833 1.94841C5.78032 1.81767 5.95928 1.74412 6.14595 1.7439H11.854C12.0407 1.74412 12.2197 1.81767 12.3517 1.94841C12.4837 2.07916 12.5579 2.25642 12.5581 2.44132V3.81707H5.44186V2.44132ZM2.09302 5.06098H15.907C16.129 5.06098 16.342 5.14834 16.499 5.30386C16.656 5.45938 16.7442 5.67031 16.7442 5.89024V8.25366L14.6704 9.62195H13.814V8.58537C13.814 8.42041 13.7478 8.26222 13.63 8.14558C13.5123 8.02894 13.3526 7.96341 13.186 7.96341H10.6744C10.5079 7.96341 10.3482 8.02894 10.2304 8.14558C10.1127 8.26222 10.0465 8.42041 10.0465 8.58537V9.62195H7.95349V8.58537C7.95349 8.42041 7.88733 8.26222 7.76958 8.14558C7.65182 8.02894 7.49211 7.96341 7.32558 7.96341H4.81395C4.64742 7.96341 4.48771 8.02894 4.36996 8.14558C4.2522 8.26222 4.18605 8.42041 4.18605 8.58537V9.62195H3.34298L1.25581 8.12927V5.89024C1.25581 5.67045 1.3439 5.45965 1.50073 5.30416C1.65756 5.14866 1.87113 5.0612 2.09302 5.06098ZM12.5581 9.20732V10.6585C12.5581 10.8235 12.492 10.9817 12.3742 11.0983C12.2565 11.215 12.0968 11.2805 11.9302 11.2805C11.7637 11.2805 11.604 11.215 11.4862 11.0983C11.3685 10.9817 11.3023 10.8235 11.3023 10.6585V9.20732H12.5581ZM6.69767 9.20732V10.6585C6.69767 10.8235 6.63152 10.9817 6.51376 11.0983C6.39601 11.215 6.2363 11.2805 6.06977 11.2805C5.90324 11.2805 5.74353 11.215 5.62577 11.0983C5.50801 10.9817 5.44186 10.8235 5.44186 10.6585V9.20732H6.69767ZM15.907 16.2561H2.09219C1.87014 16.2561 1.6572 16.1687 1.50019 16.0132C1.34318 15.8577 1.25498 15.6468 1.25498 15.4268V9.66341L2.77116 10.7489C2.87845 10.8254 3.00737 10.8663 3.13953 10.8659H4.20698C4.2567 11.3208 4.47438 11.7416 4.81821 12.0472C5.16203 12.3529 5.60775 12.522 6.06977 12.522C6.53178 12.522 6.9775 12.3529 7.32133 12.0472C7.66515 11.7416 7.88283 11.3208 7.93256 10.8659H10.0674C10.1172 11.3208 10.3348 11.7416 10.6787 12.0472C11.0225 12.3529 11.4682 12.522 11.9302 12.522C12.3922 12.522 12.838 12.3529 13.1818 12.0472C13.5256 11.7416 13.7433 11.3208 13.793 10.8659H14.8605C14.9844 10.8658 15.1056 10.8294 15.2087 10.7614L16.7442 9.74634V15.4268C16.7442 15.6466 16.6561 15.8574 16.4993 16.0129C16.3424 16.1684 16.1289 16.2559 15.907 16.2561Z" fill="#74B629"/>
</svg>
