<svg width="55" height="48" viewBox="0 0 55 48" fill="none" xmlns="http://www.w3.org/2000/svg">
<path d="M21.4844 46.2857H2.57812C2.10375 46.2857 1.71875 45.9017 1.71875 45.4286V2.57143C1.71875 2.09914 2.10375 1.71429 2.57812 1.71429H24.9219C25.3962 1.71429 25.7812 2.09914 25.7812 2.57143V10.2857C25.7812 10.7589 26.1654 11.1429 26.6406 11.1429C27.1159 11.1429 27.5 10.7589 27.5 10.2857V2.57143C27.5 1.15371 26.3433 0 24.9219 0H2.57812C1.15672 0 0 1.15371 0 2.57143V45.4286C0 46.8463 1.15672 48 2.57812 48H21.4844C21.9596 48 22.3438 47.6169 22.3438 47.1429C22.3438 46.6689 21.9596 46.2857 21.4844 46.2857Z" fill="#74B629"/>
<path d="M8.59375 5.14286C6.69797 5.14286 5.15625 6.68057 5.15625 8.57143C5.15625 10.4623 6.69797 12 8.59375 12C10.4895 12 12.0312 10.4623 12.0312 8.57143C12.0312 6.68057 10.4895 5.14286 8.59375 5.14286ZM8.59375 10.2857C7.64586 10.2857 6.875 9.51686 6.875 8.57143C6.875 7.626 7.64586 6.85714 8.59375 6.85714C9.54164 6.85714 10.3125 7.626 10.3125 8.57143C10.3125 9.51686 9.54164 10.2857 8.59375 10.2857Z" fill="#74B629"/>
<path d="M18.9062 5.14286C17.0105 5.14286 15.4688 6.68057 15.4688 8.57143C15.4688 10.4623 17.0105 12 18.9062 12C20.802 12 22.3438 10.4623 22.3438 8.57143C22.3438 6.68057 20.802 5.14286 18.9062 5.14286ZM18.9062 10.2857C17.9584 10.2857 17.1875 9.51686 17.1875 8.57143C17.1875 7.626 17.9584 6.85714 18.9062 6.85714C19.8541 6.85714 20.625 7.626 20.625 8.57143C20.625 9.51686 19.8541 10.2857 18.9062 10.2857Z" fill="#74B629"/>
<path d="M8.59375 15.4286C6.69797 15.4286 5.15625 16.9663 5.15625 18.8571C5.15625 20.748 6.69797 22.2857 8.59375 22.2857C10.4895 22.2857 12.0312 20.748 12.0312 18.8571C12.0312 16.9663 10.4895 15.4286 8.59375 15.4286ZM8.59375 20.5714C7.64586 20.5714 6.875 19.8026 6.875 18.8571C6.875 17.9117 7.64586 17.1429 8.59375 17.1429C9.54164 17.1429 10.3125 17.9117 10.3125 18.8571C10.3125 19.8026 9.54164 20.5714 8.59375 20.5714Z" fill="#74B629"/>
<path d="M18.9062 15.4286C17.0105 15.4286 15.4688 16.9663 15.4688 18.8571C15.4688 20.748 17.0105 22.2857 18.9062 22.2857C20.802 22.2857 22.3438 20.748 22.3438 18.8571C22.3438 16.9663 20.802 15.4286 18.9062 15.4286ZM18.9062 20.5714C17.9584 20.5714 17.1875 19.8026 17.1875 18.8571C17.1875 17.9117 17.9584 17.1429 18.9062 17.1429C19.8541 17.1429 20.625 17.9117 20.625 18.8571C20.625 19.8026 19.8541 20.5714 18.9062 20.5714Z" fill="#74B629"/>
<path d="M8.59375 25.7143C6.69797 25.7143 5.15625 27.252 5.15625 29.1429C5.15625 31.0337 6.69797 32.5714 8.59375 32.5714C10.4895 32.5714 12.0312 31.0337 12.0312 29.1429C12.0312 27.252 10.4895 25.7143 8.59375 25.7143ZM8.59375 30.8571C7.64586 30.8571 6.875 30.0883 6.875 29.1429C6.875 28.1974 7.64586 27.4286 8.59375 27.4286C9.54164 27.4286 10.3125 28.1974 10.3125 29.1429C10.3125 30.0883 9.54164 30.8571 8.59375 30.8571Z" fill="#74B629"/>
<path d="M18.9062 25.7143C17.0105 25.7143 15.4688 27.252 15.4688 29.1429C15.4688 31.0337 17.0105 32.5714 18.9062 32.5714C20.802 32.5714 22.3438 31.0337 22.3438 29.1429C22.3438 27.252 20.802 25.7143 18.9062 25.7143ZM18.9062 30.8571C17.9584 30.8571 17.1875 30.0883 17.1875 29.1429C17.1875 28.1974 17.9584 27.4286 18.9062 27.4286C19.8541 27.4286 20.625 28.1974 20.625 29.1429C20.625 30.0883 19.8541 30.8571 18.9062 30.8571Z" fill="#74B629"/>
<path d="M8.59375 36C6.69797 36 5.15625 37.5377 5.15625 39.4286C5.15625 41.3194 6.69797 42.8571 8.59375 42.8571C10.4895 42.8571 12.0312 41.3194 12.0312 39.4286C12.0312 37.5377 10.4895 36 8.59375 36ZM8.59375 41.1429C7.64586 41.1429 6.875 40.374 6.875 39.4286C6.875 38.4831 7.64586 37.7143 8.59375 37.7143C9.54164 37.7143 10.3125 38.4831 10.3125 39.4286C10.3125 40.374 9.54164 41.1429 8.59375 41.1429Z" fill="#74B629"/>
<path d="M18.9062 36C17.0105 36 15.4688 37.5377 15.4688 39.4286C15.4688 41.3194 17.0105 42.8571 18.9062 42.8571C20.802 42.8571 22.3438 41.3194 22.3438 39.4286C22.3438 37.5377 20.802 36 18.9062 36ZM18.9062 41.1429C17.9584 41.1429 17.1875 40.374 17.1875 39.4286C17.1875 38.4831 17.9584 37.7143 18.9062 37.7143C19.8541 37.7143 20.625 38.4831 20.625 39.4286C20.625 40.374 19.8541 41.1429 18.9062 41.1429Z" fill="#74B629"/>
<path d="M53.4531 15.6583L49.8438 10.858V7.71429C50.319 7.71429 50.7031 7.33029 50.7031 6.85714V1.71429C50.7031 1.24114 50.319 0.857143 49.8438 0.857143H29.2188C28.7435 0.857143 28.3594 1.24114 28.3594 1.71429V6.85714C28.3594 7.33029 28.7435 7.71429 29.2188 7.71429V10.858L25.6094 15.6582C24.6116 16.9842 24.0625 18.6282 24.0625 20.2859V45.4286C24.0625 46.8463 25.2192 48 26.6406 48H52.4219C53.8433 48 55 46.8463 55 45.4286V20.2869C55 18.6291 54.4509 16.9851 53.4531 15.6583ZM48.9844 6H45.5469V2.57143H48.9844V6ZM40.3906 6V2.57143H43.8281V6H40.3906ZM35.2344 6V2.57143H38.6719V6H35.2344ZM30.0781 2.57143H33.5156V6H30.0781V2.57143ZM48.125 7.71429V10.2857H30.9375V7.71429H48.125ZM52.4219 46.2857H26.6406C26.1663 46.2857 25.7812 45.9017 25.7812 45.4286V20.286C25.7812 18.996 26.2084 17.7171 26.9835 16.686L30.5078 12H48.5547L52.079 16.686C52.8541 17.718 53.2812 18.9969 53.2812 20.286V21.4286H34.375C32.9536 21.4286 31.7969 22.5823 31.7969 24V39.4286C31.7969 40.8463 32.9536 42 34.375 42H53.2812V45.4286C53.2812 45.9017 52.8963 46.2857 52.4219 46.2857ZM53.2812 40.2857H34.375C33.9006 40.2857 33.5156 39.9017 33.5156 39.4286V24C33.5156 23.5277 33.9006 23.1429 34.375 23.1429H53.2812V40.2857Z" fill="#74B629"/>
<path d="M38.6719 34.2857H41.25V36.8571C41.25 37.3311 41.6341 37.7143 42.1094 37.7143H45.5469C46.0221 37.7143 46.4062 37.3311 46.4062 36.8571V34.2857H48.9844C49.4596 34.2857 49.8438 33.9026 49.8438 33.4286V30C49.8438 29.526 49.4596 29.1429 48.9844 29.1429H46.4062V26.5714C46.4062 26.0974 46.0221 25.7143 45.5469 25.7143H42.1094C41.6341 25.7143 41.25 26.0974 41.25 26.5714V29.1429H38.6719C38.1966 29.1429 37.8125 29.526 37.8125 30V33.4286C37.8125 33.9026 38.1966 34.2857 38.6719 34.2857ZM39.5312 30.8571H42.1094C42.5846 30.8571 42.9688 30.474 42.9688 30V27.4286H44.6875V30C44.6875 30.474 45.0716 30.8571 45.5469 30.8571H48.125V32.5714H45.5469C45.0716 32.5714 44.6875 32.9546 44.6875 33.4286V36H42.9688V33.4286C42.9688 32.9546 42.5846 32.5714 42.1094 32.5714H39.5312V30.8571Z" fill="#74B629"/>
</svg>
