<svg width="164" height="172" viewBox="0 0 164 172" fill="none" xmlns="http://www.w3.org/2000/svg">
<path d="M163.554 87.7323L163.554 17.6704L132.977 0.151366L132.977 70.2133L163.554 87.7323Z" fill="#81C133"/>
<path d="M105.754 147.318L112.577 140.279L163.554 87.7358L132.977 70.2168L81.9999 122.76L81.9713 122.802L81.957 122.788L81.9999 122.76L31.0234 70.2168L0.446151 87.7358L51.394 140.264L51.351 140.279L58.1746 147.318L81.9713 171.847L105.754 147.318Z" fill="#63A61C"/>
<path d="M0.446173 87.7323L0.446176 17.6704L31.0234 0.151367L31.0234 70.2133L0.446173 87.7323Z" fill="#81C133"/>
<path d="M105.754 77.2522L112.577 70.2134L163.554 17.6704L132.977 0.151366L81.9999 52.6943L81.9713 52.7227L81.957 52.7227L81.9999 52.6943L31.0234 0.151361L0.446151 17.6704L51.394 70.1991L51.351 70.2134L58.1746 77.2522L81.9713 101.768L105.754 77.2522Z" fill="#81C133"/>
</svg>
