<svg width="50" height="40" viewBox="0 0 50 40" fill="none" xmlns="http://www.w3.org/2000/svg">
<path d="M38.9606 1.10143e-07C41.8234 -0.00042021 44.5716 1.20217 46.6127 3.34845C48.6538 5.49474 49.8243 8.41277 49.8717 11.4733C50.1523 14.3567 50.1118 18.61 48.2881 23.52C46.4238 28.54 42.7889 34.0133 36.1549 39.3333C35.8274 39.596 35.4547 39.7871 35.0582 39.8957C34.6616 40.0043 34.2489 40.0284 33.8436 39.9665C33.0251 39.8415 32.2866 39.3739 31.7905 38.6667C31.2944 37.9594 31.0814 37.0704 31.1983 36.1953C31.3153 35.3201 31.7525 34.5304 32.414 34C37.2897 30.09 40.0829 26.29 41.6822 22.9667C40.1828 23.3784 38.6187 23.4442 37.0936 23.1599C35.5686 22.8755 34.1177 22.2474 32.8371 21.3173C31.5566 20.3872 30.4758 19.1764 29.6666 17.7654C28.8574 16.3543 28.3382 14.7753 28.1437 13.1332C27.9491 11.4911 28.0835 9.8235 28.538 8.24122C28.9925 6.65895 29.7567 5.1982 30.7798 3.95602C31.8029 2.71383 33.0616 1.71864 34.472 1.03657C35.8825 0.354497 37.4126 0.00114872 38.9606 1.10143e-07ZM10.9035 1.10143e-07C13.7663 -0.00042021 16.5145 1.20217 18.5556 3.34845C20.5967 5.49474 21.7672 8.41277 21.8146 11.4733C22.0952 14.3567 22.0547 18.61 20.231 23.52C18.3698 28.54 14.7318 34.0133 8.09782 39.3333C7.7703 39.596 7.39762 39.7871 7.00104 39.8957C6.60445 40.0043 6.19174 40.0284 5.78647 39.9665C4.96798 39.8415 4.22946 39.3739 3.73338 38.6667C3.2373 37.9594 3.02429 37.0704 3.14122 36.1953C3.25814 35.3201 3.69543 34.5304 4.35687 34C9.23257 30.09 12.0258 26.29 13.6251 22.9667C12.1257 23.3784 10.5615 23.4442 9.03653 23.1599C7.51152 22.8755 6.06056 22.2474 4.78003 21.3173C3.4995 20.3872 2.41873 19.1764 1.60951 17.7654C0.800282 16.3543 0.281133 14.7753 0.0865452 13.1332C-0.108043 11.4911 0.0263854 9.8235 0.480901 8.24122C0.935416 6.65895 1.69961 5.1982 2.72273 3.95602C3.74584 2.71383 5.00444 1.71864 6.41493 1.03657C7.82542 0.354497 9.3555 0.00114872 10.9035 1.10143e-07Z" fill="#74B629"/>
</svg>
