<svg width="40" height="40" viewBox="0 0 40 40" fill="none" xmlns="http://www.w3.org/2000/svg">
<path d="M9.20029 25.3995C7.70623 25.3995 6.35617 26.0115 5.38414 26.9836C3.26005 29.1076 2 38 2 38C2 38 10.8924 36.74 13.0164 34.6159C13.7742 33.862 14.2909 32.8999 14.5009 31.8519C14.7109 30.8038 14.6046 29.7169 14.1957 28.7293C13.7868 27.7417 13.0936 26.8979 12.2042 26.305C11.3147 25.7122 10.2692 25.397 9.20029 25.3995ZM10.4783 32.0778C9.97432 32.5818 6.57218 33.4458 6.57218 33.4458C6.57218 33.4458 7.41822 30.0617 7.94024 29.5397C8.24625 29.1976 8.69627 28.9996 9.20029 28.9996C9.55667 29.0002 9.90493 29.1061 10.2012 29.3042C10.4975 29.5023 10.7285 29.7836 10.8651 30.1128C11.0018 30.4419 11.038 30.8041 10.9692 31.1538C10.9003 31.5035 10.7295 31.825 10.4783 32.0778ZM29.7571 22.9694C41.2056 11.5209 37.3894 2.61058 37.3894 2.61058C37.3894 2.61058 28.4791 -1.20557 17.0306 10.2429L12.5484 9.34285C11.9658 9.23098 11.3646 9.26266 10.797 9.43516C10.2293 9.60765 9.7122 9.91577 9.29029 10.3329L2 17.6412L11.0004 21.4933L18.5067 28.9996L22.3588 38L29.6491 30.7097C30.4951 29.8637 30.8732 28.6396 30.6391 27.4516L29.7571 22.9694ZM11.7384 17.8932L8.30025 16.4171L11.8464 12.871L14.4385 13.393C13.4125 14.8871 12.4944 16.4531 11.7384 17.8932ZM23.5829 31.6997L22.1068 28.2616C23.5469 27.5056 25.1129 26.5875 26.589 25.5615L27.111 28.1536L23.5829 31.6997ZM27.201 20.4313C24.8249 22.8074 21.1168 24.7515 19.9287 25.3455L14.6545 20.0713C15.2305 18.9012 17.1746 15.1931 19.5687 12.799C27.993 4.37466 34.3833 5.61671 34.3833 5.61671C34.3833 5.61671 35.6253 12.007 27.201 20.4313ZM25.4009 18.1992C27.381 18.1992 29.0011 16.5791 29.0011 14.5991C29.0011 12.619 27.381 10.9989 25.4009 10.9989C23.4209 10.9989 21.8008 12.619 21.8008 14.5991C21.8008 16.5791 23.4209 18.1992 25.4009 18.1992Z" fill="#74B629"/>
</svg>
