<svg width="30" height="30" viewBox="0 0 30 30" fill="none" xmlns="http://www.w3.org/2000/svg">
<path d="M21.4324 6.83402H17.4903V6.00118C17.4903 4.62493 16.3691 3.50266 14.9941 3.50266C13.6191 3.50266 12.4979 4.62493 12.4979 6.00118V6.83402H8.55579C6.04185 6.83402 4 8.88364 4 11.394V26.0839C4 26.5446 4.37178 26.9167 4.83208 26.9167H6.16577V29.1672C6.16577 29.6279 6.53755 30 6.99785 30H10.8514C11.3117 30 11.6835 29.6279 11.6835 29.1672V26.9167H18.5585V29.1672C18.5585 29.6279 18.9303 30 19.3906 30H23.2441C23.7044 30 24.0762 29.6279 24.0762 29.1672V26.9167H25.1679C25.6282 26.9167 26 26.5446 26 26.0839V11.3999C25.9882 8.88364 23.9464 6.83402 21.4324 6.83402ZM14.1561 6.00118C14.1561 5.54046 14.5279 5.16834 14.9882 5.16834C15.4485 5.16834 15.8203 5.54046 15.8203 6.00118V6.83402H14.1561V6.00118ZM10.0075 28.3402H7.82403V26.9226H10.0075V28.3402ZM22.4002 28.3402H20.2167V26.9226H22.4002V28.3402ZM24.324 25.2569H5.65236V11.3999C5.65236 9.80508 6.95064 8.50561 8.54399 8.50561H21.4324C23.0258 8.50561 24.324 9.80508 24.324 11.3999V25.2569Z" fill="#74B629"/>
<path d="M22.0756 9.92321H7.90075C7.44045 9.92321 7.06867 10.2953 7.06867 10.7561V16.6214C7.06867 17.0821 7.44045 17.4542 7.90075 17.4542H22.0756C22.5359 17.4542 22.9077 17.0821 22.9077 16.6214V10.7561C22.9077 10.2953 22.5359 9.92321 22.0756 9.92321ZM21.2436 15.7826H8.73283V11.5889H21.2436V15.7826Z" fill="#74B629"/>
<path d="M10.397 18.9781C9.08691 18.9781 8.02468 20.0413 8.02468 21.3526C8.02468 22.6639 9.08691 23.7271 10.397 23.7271C11.7071 23.7271 12.7693 22.6639 12.7693 21.3526C12.7693 20.0413 11.7071 18.9781 10.397 18.9781ZM10.397 22.0614C10.0075 22.0614 9.68884 21.7425 9.68884 21.3526C9.68884 20.9628 10.0075 20.6438 10.397 20.6438C10.7865 20.6438 11.1052 20.9628 11.1052 21.3526C11.1052 21.7425 10.7924 22.0614 10.397 22.0614Z" fill="#74B629"/>
<path d="M19.5794 18.9781C18.2693 18.9781 17.2071 20.0413 17.2071 21.3526C17.2071 22.6639 18.2693 23.7271 19.5794 23.7271C20.8895 23.7271 21.9517 22.6639 21.9517 21.3526C21.9517 20.0413 20.8836 18.9781 19.5794 18.9781ZM19.5794 22.0614C19.1899 22.0614 18.8712 21.7425 18.8712 21.3526C18.8712 20.9628 19.1899 20.6438 19.5794 20.6438C19.9689 20.6438 20.2876 20.9628 20.2876 21.3526C20.2817 21.7425 19.9689 22.0614 19.5794 22.0614Z" fill="#74B629"/>
<path d="M11.294 3.14235L10.5268 2.43946C10.1845 2.13231 9.65934 2.15594 9.35247 2.49262C9.0456 2.8352 9.06921 3.3609 9.40558 3.66804L10.1727 4.37094C10.515 4.67809 11.0402 4.65446 11.3471 4.31778C11.654 3.97519 11.6304 3.4495 11.294 3.14235Z" fill="#74B629"/>
<path d="M14.9882 0C14.5279 0 14.1561 0.372121 14.1561 0.832841V1.87242C14.1561 2.33314 14.5279 2.70526 14.9882 2.70526C15.4485 2.70526 15.8203 2.33314 15.8203 1.87242V0.832841C15.8203 0.372121 15.4485 0 14.9882 0Z" fill="#74B629"/>
<path d="M20.6239 2.49262C20.3171 2.15003 19.7859 2.1264 19.4496 2.43946L18.6765 3.14235C18.3401 3.44359 18.3165 3.97519 18.6234 4.31187C18.9303 4.65446 19.4614 4.67809 19.7977 4.37094L20.5708 3.66804C20.9131 3.3609 20.9367 2.8293 20.6239 2.49262Z" fill="#74B629"/>
</svg>
