<svg width="16" height="17" viewBox="0 0 16 17" fill="none" xmlns="http://www.w3.org/2000/svg">
<path d="M15 15.5L11.6221 12.1221M11.6221 12.1221C12.1999 11.5444 12.6583 10.8584 12.971 10.1035C13.2837 9.34856 13.4446 8.53944 13.4446 7.72231C13.4446 6.90519 13.2837 6.09606 12.971 5.34114C12.6583 4.58621 12.1999 3.90027 11.6221 3.32247C11.0444 2.74468 10.3584 2.28635 9.60349 1.97365C8.84856 1.66094 8.03944 1.5 7.22231 1.5C6.40519 1.5 5.59606 1.66094 4.84114 1.97365C4.08621 2.28635 3.40027 2.74468 2.82247 3.32247C1.65556 4.48938 1 6.07205 1 7.72231C1 9.37257 1.65556 10.9552 2.82247 12.1221C3.98938 13.2891 5.57205 13.9446 7.22231 13.9446C8.87257 13.9446 10.4552 13.2891 11.6221 12.1221Z" stroke="#74B629" stroke-width="1.5" stroke-linecap="round" stroke-linejoin="round"/>
</svg>
