<svg width="30" height="30" viewBox="0 0 30 30" fill="none" xmlns="http://www.w3.org/2000/svg">
<path d="M25.6055 21.2109H19.3359V13.2422C19.3359 11.12 17.8236 9.3443 15.8203 8.93596V7.08984H16.6992C17.1846 7.08984 17.5781 6.69633 17.5781 6.21094V0.878906C17.5781 0.393516 17.1846 0 16.6992 0H2.63672C2.15133 0 1.75781 0.393516 1.75781 0.878906V6.21094C1.75781 6.69633 2.15133 7.08984 2.63672 7.08984H3.51562V8.93596C1.51225 9.3443 0 11.12 0 13.2422V27.3633C0 28.8172 1.18283 30 2.63672 30H25.6055C28.0286 30 30 28.0286 30 25.6055C30 23.1823 28.0287 21.2109 25.6055 21.2109ZM14.0625 1.75781H15.8203V5.33203C15.1842 5.33203 14.6985 5.33203 14.0625 5.33203V1.75781ZM10.5469 1.75781H12.3047V5.33203H10.5469V1.75781ZM7.03125 1.75781H8.78906V5.33203H7.03125V1.75781ZM3.51562 1.75781H5.27344V5.33203C4.63734 5.33203 4.15172 5.33203 3.51562 5.33203V1.75781ZM4.39453 10.6055C4.87992 10.6055 5.27344 10.212 5.27344 9.72656V7.08984H14.0625V9.72656C14.0625 10.212 14.456 10.6055 14.9414 10.6055C16.0873 10.6055 17.0648 11.3402 17.4275 12.3633H1.9084C2.27115 11.3402 3.24867 10.6055 4.39453 10.6055ZM2.63672 28.2422C2.15209 28.2422 1.75781 27.8479 1.75781 27.3633V26.4844H14.1509C14.2832 27.1335 14.5591 27.7309 14.9438 28.2422H2.63672ZM14.1509 24.7266H1.75781V14.1211H17.5781V21.2994C15.8588 21.6498 14.5013 23.0072 14.1509 24.7266ZM21.1523 28.2422H18.457C17.0031 28.2422 15.8203 27.0594 15.8203 25.6055C15.8203 24.1516 17.0031 22.9688 18.457 22.9688H21.1523V28.2422ZM25.6055 28.2422H22.9102V22.9688H25.6055C27.0594 22.9688 28.2422 24.1516 28.2422 25.6055C28.2422 27.0594 27.0594 28.2422 25.6055 28.2422Z" fill="#74B629"/>
<path d="M12.3047 18.5156H10.5469V16.7578C10.5469 16.2724 10.1534 15.8789 9.66797 15.8789C9.18258 15.8789 8.78906 16.2724 8.78906 16.7578V18.5156H7.03125C6.54586 18.5156 6.15234 18.9091 6.15234 19.3945C6.15234 19.8799 6.54586 20.2734 7.03125 20.2734H8.78906V22.0898C8.78906 22.5752 9.18258 22.9688 9.66797 22.9688C10.1534 22.9688 10.5469 22.5752 10.5469 22.0898V20.2734H12.3047C12.7901 20.2734 13.1836 19.8799 13.1836 19.3945C13.1836 18.9091 12.7901 18.5156 12.3047 18.5156Z" fill="#74B629"/>
</svg>
