<svg width="18" height="10" viewBox="0 0 18 10" fill="none" xmlns="http://www.w3.org/2000/svg">
<path d="M16.8169 9.99919H14.9555C14.2516 9.99919 14.0395 9.43463 12.7776 8.18437C11.6748 7.13198 11.2091 7.00114 10.9301 7.00114C10.5443 7.00114 10.4391 7.10613 10.4391 7.63192V9.28925C10.4391 9.73751 10.2923 10 9.10952 10C7.96209 9.92367 6.84939 9.57852 5.86308 8.99297C4.87676 8.40741 4.04505 7.59822 3.43645 6.63203C1.99138 4.85115 0.985907 2.76096 0.5 0.527694C0.5 0.251472 0.606039 0.00109585 1.13786 0.00109585H2.99762C3.47561 0.00109585 3.64771 0.211897 3.83532 0.698919C4.73828 3.33029 6.2791 5.61922 6.90473 5.61922C7.14454 5.61922 7.24895 5.51422 7.24895 4.9222V2.21168C7.16983 0.975141 6.50668 0.870952 6.50668 0.423505C6.51507 0.305458 6.5696 0.195298 6.6587 0.116425C6.7478 0.0375521 6.86444 -0.00382026 6.98385 0.00109585H9.90725C10.3069 0.00109585 10.4391 0.198166 10.4391 0.671458V4.33019C10.4391 4.72513 10.6104 4.85598 10.7311 4.85598C10.9709 4.85598 11.1552 4.72513 11.5949 4.29061C12.5373 3.1526 13.3072 1.88471 13.8804 0.526886C13.9391 0.363862 14.05 0.224314 14.1963 0.129529C14.3425 0.034743 14.516 -0.0100776 14.6904 0.00190345H16.551C17.1089 0.00190345 17.2272 0.278125 17.1089 0.672266C16.4322 2.17325 15.5949 3.59804 14.6113 4.9222C14.4106 5.22508 14.3307 5.38257 14.6113 5.73795C14.7956 6.01417 15.4482 6.55369 15.8862 7.06656C16.5241 7.69654 17.0534 8.42505 17.4539 9.22303C17.6138 9.7367 17.3479 9.99919 16.8169 9.99919Z" fill="#323B44"/>
</svg>
